<svg width="250" height="750" viewBox="0 0 250 750" fill="none" xmlns="http://www.w3.org/2000/svg">
<g clip-path="url(#clip0)">
<path d="M614 750L614 6.10352e-05L-366 1.8198e-05L-366 750L614 750Z" fill="url(#paint0_linear)"/>
<path d="M417.524 691.133C417.524 635.956 408.71 579.005 419.54 524.199C421.482 514.371 423.492 504.617 425.458 494.897C425.851 492.953 426.242 491.01 426.63 489.075C429.815 477.305 432.657 465.394 436.828 453.671C437.523 451.717 438.255 449.769 438.998 447.833C442 441.429 436 433.929 440 428.036C448 417.321 448 405.536 443.713 394.069C442.921 392.351 442.208 390.634 441.626 388.899C441.035 387.173 440.575 385.428 440.29 383.657C439.858 381.292 439.808 379.203 439.809 377.121C440.542 337.618 447.618 296.627 437.589 257.657C432.561 238.121 403.873 224.018 403.633 204.577C403.333 180.294 389.682 156.676 389.742 132.356C389.844 90.8888 402.569 49.7047 408.641 8.36952C409.043 5.63042 409.518 2.82488 409.972 5.94354e-05L306.026 5.48917e-05C305.944 0.357376 305.859 0.716305 305.778 1.07309C299.931 26.7531 275.616 52.1063 275.836 78.1484C276.083 107.36 282.203 138.165 275.98 167.231C270.959 190.681 259.173 213.786 254.293 237.045C249.646 259.196 250.823 281.547 250.832 303.889C250.833 307.524 250.89 311.165 251.035 314.807C251.108 316.628 251.204 318.451 251.342 320.29C252 343.393 260 364.821 271 387.857C272 390.536 271 393.75 271.331 396.572C271.358 398.276 271.398 400.014 271.447 401.75C271.67 409.562 272.084 417.327 272.441 425.094C272.53 427.036 272.616 428.979 272.695 430.923C273 445.179 274 459.643 269.585 474.015C268.919 475.712 268.281 477.414 267.677 479.119C264.656 487.648 262.476 496.271 261.783 504.938C260.979 514.993 257.541 523.686 260.33 533.594C263.629 545.315 259.014 558.069 258.929 569.9C258.819 585.288 276.092 598.124 275.202 613.438C274.521 625.141 279.729 633.857 285.07 644.883C291.895 658.971 286.786 674.848 287.118 689.27C287.51 706.316 288.334 723.419 284.934 740.402C284.308 743.528 283.977 746.756 283.628 750L420.447 750C422.568 730.586 417.524 710.042 417.524 691.133Z" fill="url(#paint1_linear)"/>
<path d="M-22.637 627.192C-21.818 615.393 -20.2059 606.188 -17.0939 594.874C-14.6289 585.911 -12.0109 576.953 -10.3449 567.943C-8.3939 557.395 -7.11491 547.508 -4.15691 537.207C-1.73091 528.759 -4.47192 519.478 -1.86992 511.347C0.956078 502.518 0.385073 493.376 3.12507 484.381C7.00607 471.637 5.44209 458.134 5.44209 445.018C5.44209 430.659 5.44209 416.3 5.44209 401.941C5.44209 386.702 2.06508 372.477 2.06508 357.227C2.06508 343.085 3.19906 329.097 4.31606 315.098C5.43206 301.105 1.23409 288.231 -1.34391 274.498C-7.18991 243.354 -9.54191 210.505 -5.80991 178.957C-3.23591 157.203 -0.692909 134.672 -4.96091 113.321C-7.21891 102.027 -5.81588 90.742 -11.4099 79.9233C-13.1539 76.5504 -21.1019 60.4538 -27.1409 59.5008C-39.5139 57.5492 -39.4729 73.3142 -40.7349 77.9985C-43.6999 88.9994 -46.3149 99.7388 -53.7169 109.911C-71.8329 134.811 -68.7129 169.313 -63.2479 196.287C-56.7279 228.47 -76.7809 251.998 -83.2829 282.198C-87.3549 301.112 -89.8649 319.307 -96.9839 337.929C-102.554 352.5 -106.913 367.835 -112.543 381.903C-115.824 390.1 -121.648 399.382 -122.891 407.985C-124.253 417.411 -123.337 426.911 -123.968 436.4C-125.523 459.774 -134.482 481.899 -127.258 505.106C-113.622 548.914 -117.897 594.721 -111.581 639.245C-110.006 650.349 -106.436 660.11 -101.295 670.747C-97.5199 678.556 -96.6109 685.344 -94.6639 693.731C-91.6579 706.683 -79.4319 721.567 -69.9029 732.781C-68.8109 734.065 -68.3799 736.537 -67.5259 738.079C-50.0459 727.064 -43.7669 707.528 -37.3329 692.223C-28.5739 671.39 -24.149 648.978 -22.637 627.192Z" fill="url(#paint2_linear)"/>
<path d="M235.927 640.118C235.927 616.42 228.275 593.94 227.847 571.218C227.315 542.974 225.842 515.856 218.121 488.473C211.51 465.026 206.581 440.626 196.811 417.423C189.217 399.39 177.606 378.989 180.717 359.655C182.468 348.771 192.014 338.137 196.941 327.849C201.388 318.563 200.913 306.021 200.916 295.596C200.923 269.722 207.322 246.227 210.941 221.195C214.389 197.343 212.631 172.421 214.312 147.993C215.852 125.614 214.812 102.065 218.421 79.4943C221.734 58.7782 223.807 37.497 223.807 15.1363C223.807 10.9754 224.726 5.47895 225.064 0.000731436L70.85 0.000724695C69.894 20.3954 68.785 41.128 71.617 60.9372C74.669 82.2843 77.757 103.192 85.109 123.987C89.588 136.657 92.598 149.79 94.535 162.45C97.625 182.647 98.575 202.126 98.575 222.914C98.575 244.577 101.381 266.311 104.031 287.293C106.451 306.458 104.189 323.864 110.769 342.563C116.941 360.104 126.887 377.754 126.854 397.31C126.808 424.406 123.681 449.847 120.191 476.147C118.642 487.818 111.577 498.982 110.695 511.07C110 520.608 108.497 529.196 105.608 538.427C98.258 561.914 94.536 583.179 94.536 608.195C94.536 656.273 79.825 702.843 72.19 750.001L247.625 750.001C240.653 736.162 243.535 719.847 241.313 705.077C238.154 684.069 235.927 661.634 235.927 640.118Z" fill="url(#paint3_linear)"/>
<path d="M244.832 742.873C244.688 729.435 243.355 715.919 238.507 703.098C228.605 676.913 229.885 650.254 228.019 622.311C227.174 609.663 220.54 597.792 217.498 585.228C214.247 571.8 216.019 558.25 215.324 544.441C214.764 533.321 213.459 521.278 210.991 510.39C208.432 499.098 202.532 488.599 200.341 477.224C199 470.265 198.936 462.926 197.034 456.084C194.699 447.682 190.025 439.477 187.188 431.221C184.328 422.898 178.04 396.92 164.115 397.421C154.039 397.783 153.141 408.981 152.604 415.581C151.796 425.521 151.594 435.806 146.863 444.933C144.438 449.611 139.506 453.252 137.502 457.99C135.685 462.287 135.234 467.023 134.513 471.888C130.981 495.736 128.139 519.297 122.721 543.201C119.624 556.868 111.936 568.804 108.987 582.84C105.122 601.233 112.205 621.333 108.166 639.666C102.812 663.973 95.297 684.32 95.332 710.171C95.35 723.399 95.105 736.693 94.891 750.001L97.937 750.001C97.959 748.641 97.981 747.285 98.003 745.935C98.188 734.639 98.379 722.959 98.379 711.517L98.378 709.993C98.378 691.274 102.406 675.436 106.671 658.669C108.185 652.719 109.749 646.566 111.158 640.175C116.488 615.987 110.591 589.221 121.876 565.737C125.269 558.676 128.923 552.973 129.862 545.413C131.868 529.249 133.659 512.772 134.521 496.547C135.336 481.18 139.181 477.671 150.596 467.254C163.864 455.146 164.297 447.075 164.977 432.515C166.852 432.214 168.511 432.47 170.101 433.293C188.71 442.926 179.967 473.859 189.792 488.344C195.4 496.611 192.863 504.053 196.329 513.253C197.814 517.195 202.745 520.569 204.589 524.526C206.543 528.72 207.229 533.75 208.2 537.968C211.826 553.714 210.701 570.01 214.521 585.786C215.731 590.784 217.498 595.683 219.207 600.421C221.921 607.947 224.486 615.057 224.981 622.469C225.383 628.484 225.641 634.526 225.892 640.369C226.833 662.322 227.722 683.059 235.62 703.944C239.714 714.77 241.617 726.784 241.789 742.899C241.799 743.796 241.803 744.693 241.803 745.589C241.803 747.053 241.789 748.526 241.768 750L244.809 750C244.839 747.625 244.857 745.249 244.832 742.873Z" fill="#BC7742"/>
<path d="M219.82 712.485C219.672 697.885 218.926 681.215 211.892 668.167L211.366 667.192C205.128 655.63 203.246 652.141 202.468 638.393C201.611 623.238 200.666 605.096 196.438 590.392C193.639 580.661 187.764 570.382 179.954 563.123C172.887 556.555 173.948 549.963 173.736 541.682C173.558 534.723 170.481 530.15 168.929 523.318C167.418 516.662 168.518 509.233 167.123 502.37C165.833 496.025 162.106 490.44 160.617 484.458C152.855 483.545 147.713 504.573 146.467 508.797C142.997 520.563 144.759 530.891 145.568 542.907C145.776 545.987 145.972 548.896 145.972 551.631C145.972 553.138 145.912 554.451 145.789 555.645C144.919 564.096 141.725 571.999 138.344 580.367C135.599 587.161 132.76 594.186 131.223 601.618C129.423 610.332 129.18 618.768 129.18 625.87C129.18 628.231 129.209 630.609 129.238 632.908C129.266 635.17 129.295 637.508 129.295 639.791C129.295 652.181 128.369 662.606 123.849 673.211C112.509 699.821 111.17 724.766 111.084 750.001L114.131 750.001C114.242 722.697 115.999 699.264 126.701 674.151C136.911 650.193 129.016 627.278 134.22 602.098C137.546 586.005 147.181 571.824 148.822 555.887C150.25 542.015 142.876 520.909 157.237 511.501C158.783 536.632 153.508 562.986 173.32 582.366C191.843 600.486 198.023 613.773 199.423 638.526C200.253 653.196 202.397 656.813 209.137 669.316C215.877 681.818 216.626 698.12 216.772 712.509C216.906 725.791 219.261 737.823 221.334 750.001L224.413 750.001C224.157 748.492 223.899 746.992 223.641 745.506C221.822 734.975 219.938 724.087 219.82 712.485Z" fill="#BC7742"/>
<path d="M241.786 742.898C241.613 726.784 239.711 714.77 235.617 703.944C227.719 683.058 226.83 662.322 225.889 640.369C225.639 634.526 225.38 628.483 224.978 622.468C224.483 615.056 221.919 607.947 219.204 600.42C217.495 595.682 215.728 590.783 214.518 585.785C210.698 570.01 211.823 553.713 208.197 537.967C207.226 533.75 206.54 528.72 204.586 524.525C202.742 520.569 197.811 517.195 196.326 513.253C192.86 504.053 195.397 496.61 189.789 488.343C179.964 473.859 188.707 442.925 170.098 433.292C168.508 432.47 166.848 432.214 164.974 432.515C164.294 447.074 163.861 455.145 150.593 467.254C139.179 477.67 135.333 481.179 134.518 496.547C133.656 512.772 131.866 529.249 129.859 545.412C128.921 552.972 125.266 558.676 121.873 565.736C110.589 589.22 116.485 615.987 111.155 640.175C109.747 646.566 108.182 652.718 106.668 658.668C102.403 675.436 98.375 691.273 98.375 709.992L98.376 711.516C98.376 722.958 98.185 734.638 98 745.934C97.978 747.284 97.956 748.64 97.934 750L111.084 750C111.17 724.765 112.508 699.821 123.849 673.211C128.369 662.606 129.295 652.181 129.295 639.791C129.295 637.507 129.266 635.169 129.238 632.907C129.209 630.609 129.18 628.231 129.18 625.87C129.18 618.767 129.423 610.331 131.223 601.618C132.76 594.186 135.598 587.161 138.344 580.366C141.725 571.999 144.919 564.095 145.789 555.644C145.912 554.45 145.972 553.137 145.972 551.63C145.972 548.896 145.776 545.987 145.568 542.907C144.758 530.89 142.996 520.563 146.467 508.796C147.713 504.573 152.854 483.545 160.617 484.458C162.106 490.439 165.832 496.024 167.123 502.37C168.518 509.233 167.418 516.662 168.929 523.317C170.48 530.149 173.558 534.722 173.736 541.682C173.948 549.963 172.887 556.554 179.954 563.123C187.764 570.381 193.639 580.66 196.438 590.391C200.666 605.095 201.61 623.238 202.468 638.393C203.246 652.141 205.128 655.63 211.366 667.191L211.892 668.167C218.926 681.214 219.673 697.884 219.82 712.484C219.937 724.086 221.822 734.975 223.643 745.505C223.9 746.992 224.159 748.491 224.415 750L241.765 750C241.785 748.526 241.8 747.053 241.8 745.589C241.8 744.692 241.795 743.795 241.786 742.898Z" fill="url(#paint4_linear)"/>
<path d="M197.021 713.433C192.66 705.534 187.838 698.166 185.882 690.037C183.409 679.76 184.598 668.95 180.82 658.894C178.524 652.784 172.217 639.767 165.932 636.031C157.765 631.174 147.669 634.869 144.001 641.548C138.811 651.001 141.965 663.769 139.786 673.719C136.96 686.622 129.989 697.645 127.184 711.004C124.579 723.415 123.711 736.665 123.495 750L141.607 750C142.257 743.34 141.465 736.285 141.465 729.603C141.465 724.024 140.735 718.055 142.236 712.687C143.135 709.47 146.058 706.12 146.975 703.495C150.815 692.505 152.006 678.543 157.919 668.787C170.239 666.26 167.33 683.192 168.091 689.311C168.945 696.18 172.255 703.231 174.521 709.846C177.546 718.674 182.599 727.588 186.888 736.616C188.885 740.819 190.54 745.332 191.91 750L208.94 750C208.488 745.738 208.033 741.517 207.625 737.357C206.742 728.351 200.997 720.635 197.021 713.433Z" fill="url(#paint5_linear)"/>
<path d="M174.52 709.846C172.254 703.231 168.943 696.18 168.09 689.311C167.33 683.193 170.238 666.26 157.918 668.787C152.005 678.543 150.814 692.505 146.974 703.496C146.057 706.12 143.134 709.47 142.235 712.687C140.734 718.055 141.464 724.024 141.464 729.603C141.464 736.286 142.257 743.34 141.606 750.001L191.908 750.001C190.539 745.333 188.883 740.82 186.886 736.617C182.599 727.589 177.545 718.675 174.52 709.846Z" fill="#C07F48"/>
<path d="M182.133 297.025C183.678 288.603 187.364 280.921 190.458 272.849C193.462 265.011 192.811 258.337 193.487 250.325C194.515 238.141 200.431 226.52 199.241 214.115C197.663 197.664 204.401 179.519 204.891 162.297C205.373 145.357 204.143 128.736 206.4 112.263C208.511 96.8507 213.115 82.2884 213.701 66.7725C214.565 43.9136 214.46 21.7548 216.331 0.00160383L214.189 0.00160374C212.952 14.5993 212.592 29.3711 212.223 44.6218C212.049 51.7896 211.87 59.2018 211.591 66.5802C211.247 75.6723 209.468 84.3943 207.584 93.6268C206.398 99.4387 205.172 105.448 204.332 111.579C201.681 130.931 202.462 150.922 199.946 170.238C199.272 175.411 198.796 181.581 197.44 186.726C196.16 191.58 192.738 195.719 191.708 200.554C189.303 211.84 191.063 220.969 187.172 231.11C180.354 248.878 186.421 286.824 173.507 298.641C172.403 299.649 171.252 299.964 169.951 299.594C169.479 281.734 169.179 271.834 159.971 256.98C152.05 244.203 149.382 239.898 148.816 221.047C148.218 201.144 146.975 180.932 145.583 161.103C144.932 151.829 142.396 144.833 140.041 136.172C132.21 107.365 136.302 74.5302 132.603 44.8586C131.626 37.0189 130.54 29.4718 129.49 22.1732C128.416 14.707 127.365 7.39017 126.46 0.00106419L124.307 0.00106409C126.122 14.9566 128.539 29.5248 130.528 45.4837C133.33 67.973 128.415 92.6298 131.097 115.193C132.398 126.137 135.474 136.142 134.863 147.293C134.257 158.353 132.174 169.468 134.513 180.486C136.173 188.308 139.833 195.4 140.408 203.352C140.959 210.972 140.313 218.754 140.408 226.387C140.589 240.871 146.289 253.351 146.863 267.475C147.244 276.836 148.143 285.458 150.347 293.953C152.674 302.919 153.318 311.074 153.318 320.299C153.318 329.695 152.243 339.639 153.285 348.988C154.264 357.779 158.941 365.818 160.616 374.505C177.358 377.084 180.319 306.919 182.133 297.025Z" fill="#BC7742"/>
<path d="M171.443 213.902C172.411 205.483 171.648 196.37 172.697 188.206C173.774 179.825 175.909 174.215 176.033 165.679C176.18 155.521 175.444 147.435 180.348 139.377C185.768 130.473 189.845 117.864 191.787 105.927C194.721 87.8899 195.376 65.6347 195.971 47.0438C196.511 30.179 197.817 25.8992 202.146 11.7167L202.511 10.5199C203.527 7.1872 204.345 3.6547 205.019 6.10352e-05L202.825 6.09393e-05C202.214 3.17149 201.481 6.22506 200.601 9.11256C195.923 24.4495 194.436 28.8863 193.86 46.881C192.888 77.2463 188.6 93.5449 175.746 115.772C161.997 139.546 165.658 171.874 164.585 202.703C154.619 191.161 159.737 165.271 158.746 148.255C157.607 128.705 150.921 111.309 148.613 91.567C145 60.681 150.479 32.5699 143.393 3.18059C143.137 2.11827 142.889 1.05863 142.648 0.000594023L140.411 0.000593925C140.733 1.44167 141.064 2.88488 141.414 4.33399C144.551 17.3433 145.193 30.1313 145.193 45.3301C145.193 48.1313 145.173 50.9995 145.154 53.7734C145.134 56.5934 145.114 59.5099 145.114 62.4065C145.114 71.1188 145.282 81.4672 146.532 92.1558C147.598 101.273 149.568 109.891 151.473 118.225C153.819 128.49 156.036 138.184 156.639 148.552C156.724 150.017 156.766 151.626 156.766 153.476C156.766 156.831 156.63 160.399 156.486 164.177C155.924 178.918 154.701 191.586 157.11 206.02C157.975 211.202 161.543 236.995 166.929 235.876C167.962 228.538 170.548 221.686 171.443 213.902Z" fill="#BC7742"/>
<path d="M173.508 298.641C186.422 286.824 180.355 248.878 187.173 231.11C191.064 220.969 189.304 211.84 191.709 200.554C192.739 195.719 196.162 191.581 197.441 186.726C198.797 181.582 199.273 175.411 199.947 170.238C202.463 150.922 201.682 130.931 204.333 111.579C205.173 105.448 206.399 99.4382 207.585 93.6268C209.469 84.3937 211.248 75.6723 211.592 66.5802C211.871 59.2018 212.05 51.7896 212.224 44.6218C212.594 29.3711 212.954 14.5993 214.19 0.00160383L205.019 0.00160343C204.345 3.65625 203.527 7.18875 202.511 10.5214L202.146 11.7182C197.817 25.9012 196.511 30.1811 195.971 47.0454C195.376 65.6357 194.721 87.8914 191.787 105.928C189.845 117.866 185.767 130.475 180.348 139.379C175.444 147.437 176.18 155.522 176.033 165.68C175.909 174.217 173.774 179.827 172.697 188.208C171.648 196.372 172.412 205.485 171.443 213.904C170.548 221.688 167.962 228.539 166.928 235.877C161.541 236.996 157.973 211.202 157.109 206.021C154.701 191.587 155.924 178.918 156.485 164.178C156.629 160.4 156.765 156.831 156.765 153.476C156.765 151.627 156.723 150.017 156.638 148.552C156.034 138.185 153.818 128.49 151.472 118.226C149.567 109.891 147.597 101.273 146.531 92.1562C145.282 81.4677 145.113 71.1193 145.113 62.407C145.113 59.5109 145.133 56.5939 145.153 53.7739C145.172 50.9995 145.192 48.1318 145.192 45.3305C145.192 30.1318 144.55 17.3437 141.413 4.33446C141.064 2.88535 140.733 1.44214 140.41 0.00106489L126.46 0.00106428C127.365 7.39017 128.416 14.707 129.49 22.1732C130.54 29.4718 131.626 37.0189 132.603 44.8586C136.302 74.5302 132.21 107.365 140.041 136.172C142.396 144.833 144.931 151.829 145.583 161.103C146.975 180.931 148.218 201.144 148.816 221.047C149.382 239.898 152.05 244.203 159.971 256.98C169.178 271.833 169.479 281.734 169.951 299.594C171.253 299.964 172.404 299.649 173.508 298.641Z" fill="#C07F48"/>
<path d="M170.617 49.9426C174.978 45.359 179.355 29.392 180.948 21.8963C182.456 14.8035 182.824 7.4047 183.19 6.10352e-05L171.704 6.05331e-05C171.165 6.2856 169.611 11.4118 165.055 9.76024C164.034 6.78167 163.216 3.48274 162.522 0.000595846L151.951 0.000595384C152.139 1.22577 152.318 2.45845 152.473 3.71042C153.985 15.9167 151.796 31.5788 155.398 43.1743C157.943 51.3686 164.949 55.9002 170.617 49.9426Z" fill="#BC7742"/>
<path d="M171.704 0.00106812L162.522 0.00106771C163.216 3.48321 164.034 6.78214 165.055 9.76124C169.611 11.4129 171.166 6.2866 171.704 0.00106812Z" fill="#C07F48"/>
<path d="M258.034 572.167C258.034 533.225 257.229 488.913 243.762 453.536C237.08 435.984 238.026 418.609 235.552 399.208C233.335 381.819 229.582 365.827 228.9 347.943C227.852 320.47 225.598 291.717 227.58 264.066C229.167 241.932 235.208 224.305 238.396 203.649C240.993 186.82 242.143 170.141 242.143 151.967C242.143 100.975 245.007 50.1145 250.404 0.00106766L246.838 0.0010675C241.375 50.9357 238.611 101.847 238.611 151.967C238.611 170.389 237.44 186.561 234.925 202.859C233.699 210.807 231.998 218.492 230.353 225.924C227.747 237.699 225.053 249.875 224.062 263.695C223.522 271.222 223.26 279.198 223.26 288.076C223.26 302.194 223.934 316.495 224.585 330.326C224.861 336.194 225.147 342.262 225.372 348.141C225.833 360.21 227.672 371.545 229.45 382.505C230.366 388.15 231.312 393.986 232.062 399.863C232.685 404.747 233.091 409.566 233.457 414.26C231.292 406.533 228.852 399.582 226.124 393.352C224.348 389.298 222.605 385.494 220.919 381.816C212.511 363.474 205.87 348.986 205.87 326.162C205.87 324.79 205.894 323.376 205.942 321.961C206.527 304.66 211.035 289.773 215.808 274.012C217.302 269.08 218.846 263.98 220.259 258.808C226.242 236.909 227.135 210.122 227.135 196.104C227.135 195.69 227.132 194.302 227.132 194.302C227.132 182.603 228.492 171.146 229.808 160.066C230.918 150.717 232.065 141.051 232.427 131.135C232.592 126.626 232.736 122.014 232.875 117.553C233.327 103.112 233.794 88.1796 235.034 73.3318C235.936 62.528 236.797 51.6225 237.628 41.0753C238.696 27.5405 239.785 13.7995 240.981 0.00160296L237.425 0.0016028C235.337 24.157 233.567 48.3921 231.521 72.9C229.882 92.5253 229.592 111.941 228.898 130.946C228.108 152.615 223.52 172.753 223.601 194.886C223.673 214.44 222.025 238.725 216.907 257.46C211.085 278.771 203.212 298.148 202.413 321.786C201.352 353.203 211.718 369.591 223.005 395.365C232.454 416.94 237.03 445.123 239.497 468.569C243.369 505.363 243.465 541.945 243.465 579.427C243.465 609.31 250.144 636.455 250.086 667.076C250.034 694.447 249.225 722.712 251.102 750.001L254.643 750.001C253.627 735.38 253.423 720.783 253.4 709.01C254.157 722.749 255.662 735.787 257.123 748.436C257.183 748.96 257.243 749.48 257.303 750.001L260.868 750.001C259.163 735.209 257.388 720.35 256.712 704.402C254.847 660.394 258.034 616.252 258.034 572.167ZM250.246 621.941C248.576 607.529 246.999 593.916 246.999 579.426C246.999 545.013 246.999 506.008 243.002 468.026C242.69 465.065 242.36 462.167 242.011 459.334C253.509 492.454 254.503 533.173 254.503 572.167C254.503 589.145 254.019 606.451 253.552 623.187C253.321 631.444 253.087 639.839 252.908 648.273C252.254 639.274 251.24 630.521 250.246 621.941Z" fill="#BC7742"/>
<path d="M254.503 572.166C254.503 533.172 253.508 492.453 242.011 459.333C242.36 462.166 242.69 465.063 243.002 468.025C246.999 506.007 246.999 545.012 246.999 579.425C246.999 593.915 248.576 607.528 250.246 621.94C251.24 630.52 252.254 639.273 252.908 648.272C253.087 639.839 253.322 631.443 253.552 623.186C254.02 606.45 254.503 589.144 254.503 572.166Z" fill="#C07F48"/>
<path d="M229.451 382.505C227.673 371.544 225.834 360.21 225.373 348.141C225.149 342.262 224.863 336.194 224.586 330.326C223.934 316.495 223.261 302.194 223.261 288.076C223.261 279.197 223.523 271.222 224.063 263.694C225.054 249.875 227.748 237.699 230.354 225.923C231.999 218.491 233.699 210.807 234.926 202.859C237.441 186.561 238.612 170.389 238.612 151.966C238.612 101.846 241.375 50.9354 246.839 0.000732422L240.984 0.000732166C239.788 13.7986 238.698 27.5397 237.631 41.0745C236.799 51.6216 235.939 62.5277 235.037 73.3309C233.797 88.1793 233.329 103.112 232.878 117.552C232.738 122.013 232.594 126.625 232.43 131.134C232.068 141.05 230.921 150.716 229.811 160.065C228.496 171.145 227.135 182.602 227.135 194.302C227.135 194.302 227.138 195.69 227.138 196.103C227.138 210.121 226.245 236.908 220.262 258.807C218.849 263.98 217.304 269.079 215.811 274.011C211.038 289.772 206.53 304.659 205.945 321.96C205.897 323.376 205.873 324.789 205.873 326.161C205.873 348.985 212.514 363.473 220.922 381.816C222.608 385.493 224.351 389.297 226.127 393.351C228.855 399.581 231.296 406.532 233.46 414.259C233.094 409.565 232.687 404.746 232.065 399.862C231.314 393.985 230.367 388.149 229.451 382.505Z" fill="#C07F48"/>
<path d="M71.1921 553.847C72.6981 543.617 73.9911 533.185 74.2811 522.668C73.0871 533.004 71.7291 543.26 71.1921 553.847Z" fill="#BC7742"/>
<path d="M77.186 605.507C86.434 569.667 84.201 535.792 87.753 498.666C89.363 481.84 95.154 467.972 96.798 450.484C98.985 427.232 101.267 403.817 105.625 380.97C118.433 313.833 137.239 238.982 126.096 169.169C117.203 113.449 109.629 56.8162 98.433 0.00106676L93.483 0.00106654C99.591 30.9289 104.647 61.9334 109.369 92.4621C108.638 89.588 107.85 86.7552 107.069 83.9502C104.781 75.735 102.416 67.2396 101.755 58.3436C100.247 38.0196 96.9111 18.9707 91.4991 0.00106645L86.4741 0.00106624C91.9881 19.0596 95.3761 38.2002 96.8931 58.6227C98.3941 78.8378 107.958 95.6855 107.86 115.993C107.742 140.502 105.415 166.011 107.866 190.421C111.401 225.614 121.081 262.531 111.411 297.753C107.041 313.671 101.698 329.025 96.323 344.328C96.891 347.88 97.2831 351.612 97.4781 355.578C98.4071 352.916 99.338 350.265 100.266 347.626C105.813 331.837 111.55 315.512 116.149 298.759C116.444 297.687 116.723 296.607 116.986 295.519C113.801 314.832 109.968 334.033 106.187 352.969C104.389 361.974 102.53 371.285 100.818 380.261C96.603 402.358 94.392 424.058 91.941 450.131C91.133 458.717 89.248 466.603 87.423 474.23C85.601 481.852 83.716 489.734 82.896 498.306C81.711 510.69 81.162 522.787 80.63 534.485C79.545 558.388 78.52 580.967 72.432 604.558C70.305 612.801 68.627 620.872 67.274 628.885C64.28 666.158 61.66 702.885 57.287 739.745C60.953 728.742 65.3251 718.142 65.8171 706.008C67.2661 670.271 68.497 639.177 77.186 605.507ZM120.46 264.027C120.46 247.637 118.141 231.074 115.898 215.057C114.743 206.807 113.549 198.276 112.721 190.045C111.981 182.68 111.622 174.51 111.622 165.069C111.622 156.573 111.907 147.879 112.182 139.471C112.435 131.752 112.696 123.771 112.734 116.012L112.735 115.683C112.735 115.234 112.731 114.786 112.722 114.341C113.072 116.639 113.421 118.938 113.77 121.228C116.193 137.169 118.699 153.651 121.271 169.765C123.522 183.863 124.615 198.469 124.615 214.417C124.615 234.542 122.841 254.796 120.092 274.993C120.337 271.452 120.46 267.802 120.46 264.027Z" fill="#BC7742"/>
<path d="M52.908 741.304C52.526 744.201 52.149 747.1 51.782 750L54.259 750C55.009 746.945 55.908 743.96 56.872 741.01C56.217 741.091 54.71 741.198 52.908 741.304Z" fill="#BC7742"/>
<path d="M80.631 534.485C81.162 522.786 81.711 510.69 82.897 498.306C83.717 489.734 85.6021 481.852 87.4241 474.229C89.2481 466.603 91.1341 458.716 91.9421 450.131C94.3941 424.058 96.604 402.358 100.819 380.261C102.531 371.285 104.39 361.974 106.188 352.968C109.968 334.032 113.802 314.831 116.987 295.518C116.723 296.607 116.444 297.687 116.15 298.758C111.551 315.512 105.815 331.838 100.267 347.626C99.3401 350.265 98.4091 352.915 97.4791 355.577C97.6371 358.789 97.671 362.15 97.55 365.713C96.751 389.352 88.8781 408.729 83.0561 430.04C77.9381 448.775 76.2901 473.06 76.3621 492.613C76.4001 502.947 75.418 512.845 74.282 522.669C73.992 533.186 72.699 543.618 71.193 553.848C71.147 554.748 71.0991 555.648 71.0651 556.554C70.3721 575.56 70.0821 594.975 68.4421 614.6C68.0441 619.373 67.6571 624.133 67.2751 628.886C68.6271 620.873 70.305 612.802 72.433 604.558C78.521 580.966 79.546 558.388 80.631 534.485Z" fill="#C07F48"/>
<path d="M121.27 169.764C118.699 153.651 116.193 137.168 113.769 121.228C113.42 118.937 113.071 116.638 112.721 114.34C112.73 114.786 112.734 115.233 112.734 115.682L112.733 116.011C112.696 123.771 112.434 131.752 112.181 139.47C111.905 147.878 111.621 156.573 111.621 165.068C111.621 174.51 111.981 182.679 112.72 190.044C113.547 198.276 114.742 206.807 115.897 215.057C118.14 231.074 120.459 247.637 120.459 264.026C120.459 267.802 120.336 271.451 120.09 274.993C122.84 254.796 124.613 234.542 124.613 214.416C124.614 198.468 123.52 183.863 121.27 169.764Z" fill="#C07F48"/>
<path d="M91.4991 0.00106733C96.9111 18.9707 100.247 38.0196 101.756 58.3436C102.416 67.2391 104.782 75.7345 107.07 83.9502C107.851 86.7552 108.64 89.588 109.37 92.4621C104.647 61.9334 99.5921 30.9289 93.4841 0.00106742L91.4991 0.00106733Z" fill="#C07F48"/>
<path d="M271.735 730.106L271.779 723.348L271.866 716.589L272.57 662.492L272.723 648.958L272.786 635.432L272.832 621.896C272.779 617.334 272.612 612.774 272.216 608.242C270.729 590.085 266.708 572.419 265.012 554.618C264.825 552.402 264.612 550.202 264.503 547.936L264.129 541.197L263.758 534.429L263.314 527.67L261.402 500.689L260.952 493.951L260.574 487.214C260.287 482.719 260.173 478.244 259.984 473.761C259.899 471.52 259.9 469.257 259.854 467.006L259.802 463.625L259.779 461.956L259.777 460.265L259.766 446.741C259.753 437.721 259.711 428.695 259.528 419.662C259.357 412.136 259.073 404.605 258.61 397.081C258.517 395.576 258.417 394.071 258.31 392.575C258 370.18 252 348.215 245.729 326.027C245.049 323.874 244.42 321.722 243.834 319.563C243.248 317.404 242.701 315.235 242.193 313.056C240.165 304.341 238.816 295.466 238.241 286.546C237.981 282.089 237.928 277.607 238.124 273.167C238.187 272.056 238.206 270.96 238.32 269.83L238.461 268.145L238.532 267.303L238.567 266.904L238.619 266.492C238.765 265.392 238.886 264.29 239.05 263.192L239.622 259.908C241.334 251.161 244.326 242.672 247.094 234.083C248.481 229.787 249.819 225.455 250.926 221.046C251.485 218.855 251.974 216.591 252.39 214.364C252.573 213.242 252.784 212.167 252.945 211.006L253.385 207.646L254.266 200.925C254.558 198.685 254.877 196.447 255.068 194.197C255.5 189.701 255.981 185.209 256.373 180.711C257.874 162.707 258.457 144.654 258.727 126.614L258.822 119.848L258.858 113.082C258.888 108.571 258.905 104.061 258.89 99.5534C258.888 95.0475 258.859 90.5304 258.932 86.0411C258.929 83.7927 259.057 81.547 259.13 79.3002C259.188 77.0523 259.372 74.8098 259.499 72.5646C260.095 63.5882 261.128 54.638 262.318 45.712L263.234 39.0139C263.547 36.7462 263.653 34.4764 263.714 32.2125C263.827 27.6825 263.669 23.1696 263.526 18.6616C263.316 12.4382 263.053 6.21589 263.04 0.00106769L262.253 0.00106765C262.221 6.23785 262.44 12.4704 262.607 18.6905C262.718 23.1937 262.842 27.6991 262.698 32.1836C262.622 34.4234 262.499 36.6643 262.18 38.8623L261.215 45.5561C259.957 54.4923 258.876 63.4602 258.22 72.4741C258.079 74.7289 257.881 76.98 257.808 79.2396C257.721 81.4977 257.579 83.7541 257.568 86.0148C257.468 90.5405 257.47 95.04 257.445 99.5507C257.433 104.06 257.389 108.566 257.332 113.071L257.256 119.829L257.12 126.586C256.962 135.595 256.643 144.599 256.242 153.596L255.5 167.083L254.471 180.547C254.057 185.028 253.556 189.499 253.103 193.975C252.901 196.217 252.572 198.441 252.271 200.67L251.361 207.354L250.906 210.696C250.755 211.766 250.527 212.905 250.342 214.006C249.919 216.206 249.444 218.347 248.879 220.521C247.769 224.851 246.425 229.129 245.022 233.401C242.225 241.941 239.154 250.49 237.35 259.453L236.745 262.827C236.57 263.957 236.438 265.095 236.283 266.229L236.227 266.655L236.186 267.097L236.111 267.94L235.961 269.623C235.843 270.736 235.813 271.896 235.743 273.035C235.518 277.601 235.55 282.145 235.792 286.691C236.33 295.77 237.655 304.789 239.68 313.639C240.186 315.852 240.732 318.055 241.318 320.247C241.904 322.44 242.53 324.622 243.201 326.799C250 348.751 255 370.715 255.408 392.776C255.509 394.27 255.602 395.764 255.688 397.259C256.118 404.735 256.37 412.226 256.511 419.722C256.657 428.72 256.662 437.727 256.639 446.74L256.595 460.265L256.59 461.956L256.606 463.668L256.645 467.049C256.682 469.304 256.672 471.552 256.747 473.815C256.918 478.34 257.017 482.882 257.286 487.386L257.643 494.154L258.074 500.912L259.904 527.897L260.326 534.635L260.675 541.372L261.03 548.138C261.131 550.377 261.341 552.665 261.527 554.942C263.208 573.064 267.168 590.716 268.564 608.54C268.94 612.992 269.088 617.448 269.127 621.901L269.04 635.414L268.937 648.937L268.743 662.45L267.876 716.538L267.776 723.302L267.719 730.069L267.606 743.602C267.578 745.735 267.571 747.868 267.571 750.001L271.625 750.001C271.621 747.874 271.624 745.747 271.648 743.62L271.735 730.106Z" fill="#BC7742"/>
<path d="M56.871 741.011C56.989 740.996 57.0871 740.982 57.1451 740.97C57.1941 740.562 57.239 740.154 57.287 739.746C61.66 702.886 64.28 666.159 67.274 628.886C67.656 624.133 68.043 619.372 68.441 614.6C70.08 594.975 70.3701 575.56 71.0641 556.554C71.0971 555.648 71.1461 554.749 71.1921 553.848C71.7291 543.262 73.086 533.005 74.281 522.669C75.417 512.846 76.3991 502.947 76.3611 492.613C76.2891 473.06 77.937 448.775 83.055 430.04C88.877 408.729 96.7501 389.352 97.5491 365.713C97.6691 362.15 97.6361 358.789 97.4781 355.577C97.2831 351.611 96.8911 347.88 96.3231 344.328C93.2951 325.389 85.3841 311.376 76.9581 292.135C67.5091 270.559 62.9331 242.376 60.4661 218.93C56.5941 182.136 56.498 145.554 56.498 108.072C56.498 78.1896 49.8191 51.0439 49.8771 20.423C49.8891 13.6618 49.9491 6.84428 50.0021 0.00106603L43.7341 0.00106576C44.3521 38.4032 41.9301 76.8889 41.93 115.332C41.93 154.275 42.7351 198.587 56.2021 233.964C62.8841 251.516 61.938 268.891 64.412 288.291C66.629 305.681 70.3821 321.672 71.0641 339.557C72.1121 367.03 74.366 395.782 72.384 423.433C70.797 445.568 64.756 463.195 61.568 483.851C58.971 500.68 57.821 517.359 57.821 535.533C57.821 604.98 52.528 674.192 42.724 741.591C42.695 741.788 48.622 741.555 52.907 741.305C54.71 741.199 56.217 741.092 56.871 741.011ZM45.462 115.332C45.462 98.3545 45.9461 81.0487 46.4131 64.3125C46.6441 56.0561 46.8781 47.6604 47.0571 39.2266C47.7101 48.2261 48.7251 56.9796 49.7191 65.5586C51.3891 79.9709 52.9661 93.5834 52.9661 108.073C52.9661 142.487 52.9661 181.492 56.9631 219.474C57.2751 222.435 57.605 225.333 57.954 228.166C46.456 195.046 45.462 154.326 45.462 115.332ZM61.3531 535.533C61.3531 517.11 62.524 500.938 65.039 484.64C66.265 476.692 67.9661 469.007 69.6111 461.576C72.2171 449.801 74.911 437.624 75.902 423.805C76.442 416.277 76.704 408.302 76.704 399.423C76.704 385.305 76.0301 371.004 75.3791 357.173C75.1021 351.305 74.817 345.237 74.592 339.358C74.131 327.289 72.292 315.955 70.514 304.994C69.598 299.35 68.652 293.513 67.902 287.636C67.279 282.752 66.8731 277.933 66.5071 273.239C68.6721 280.967 71.1121 287.917 73.8401 294.147C75.6161 298.202 77.359 302.005 79.045 305.683C87.453 324.025 94.094 338.513 94.094 361.338C94.094 362.71 94.07 364.123 94.022 365.538C93.437 382.84 88.9291 397.726 84.1561 413.487C82.6621 418.419 81.1181 423.519 79.7051 428.691C73.7221 450.59 72.829 477.377 72.829 491.395C72.829 491.809 72.832 493.197 72.832 493.197C72.832 504.896 71.472 516.354 70.156 527.434C69.046 536.782 67.899 546.448 67.537 556.364C67.372 560.874 67.228 565.485 67.089 569.946C66.637 584.387 66.17 599.32 64.93 614.167C64.028 624.971 63.167 635.877 62.336 646.424C59.994 676.123 57.574 706.799 54.055 736.944C52.028 737.074 49.2081 737.218 46.9261 737.305C56.5001 669.85 61.3531 601.996 61.3531 535.533Z" fill="#BC7742"/>
<path d="M62.3351 646.423C63.1671 635.876 64.0271 624.97 64.9291 614.167C66.1691 599.318 66.6371 584.386 67.0881 569.945C67.2281 565.485 67.3721 560.873 67.5361 556.363C67.8981 546.448 69.0451 536.781 70.1551 527.433C71.4701 516.353 72.831 504.896 72.831 493.196C72.831 493.196 72.8281 491.808 72.8281 491.395C72.8281 477.377 73.721 450.59 79.704 428.691C81.117 423.518 82.6621 418.419 84.1551 413.487C88.9281 397.726 93.4361 382.839 94.0211 365.538C94.0691 364.122 94.0931 362.709 94.0931 361.337C94.0931 338.512 87.4521 324.025 79.0441 305.682C77.3581 302.005 75.615 298.201 73.839 294.147C71.111 287.917 68.67 280.966 66.506 273.239C66.872 277.933 67.2791 282.752 67.9011 287.636C68.6501 293.513 69.5971 299.349 70.5131 304.993C72.2911 315.955 74.1301 327.289 74.5911 339.357C74.8151 345.237 75.101 351.304 75.378 357.172C76.03 371.003 76.7031 385.304 76.7031 399.423C76.7031 408.301 76.4411 416.277 75.9011 423.804C74.9101 437.623 72.216 449.8 69.61 461.575C67.965 469.007 66.2651 476.691 65.0381 484.639C62.5231 500.938 61.352 517.109 61.352 535.532C61.352 601.995 56.4991 669.849 46.9241 737.305C49.2061 737.218 52.026 737.074 54.053 736.944C57.573 706.799 59.9931 676.123 62.3351 646.423Z" fill="#C07F48"/>
<path d="M52.967 108.072C52.967 93.5824 51.39 79.9699 49.72 65.5576C48.726 56.9781 47.712 48.2251 47.058 39.2256C46.879 47.6594 46.6441 56.0551 46.4141 64.3115C45.9461 81.0478 45.4631 98.3535 45.4631 115.331C45.4631 154.325 46.4581 195.045 57.9551 228.165C57.6061 225.332 57.276 222.435 56.964 219.473C52.967 181.491 52.967 142.486 52.967 108.072Z" fill="#C07F48"/>
<path d="M-11.4119 745.891C-10.8799 744.861 -10.448 743.744 -10.052 742.612C-9.28296 740.33 -8.74196 737.937 -8.34096 735.531C-7.53196 730.711 -7.22198 725.841 -7.05898 721.012C-6.90798 716.18 -6.94197 711.372 -7.05397 706.588C-7.27197 697.025 -7.85994 687.531 -8.15694 678.146C-8.22394 675.814 -8.26794 673.45 -8.23494 671.207L-8.06398 664.121L-7.71498 649.863L-7.62794 646.298C-7.59494 645.11 -7.57093 643.921 -7.56093 642.733L-7.47493 635.604L-7.30293 621.347C-7.24293 616.594 -7.25094 611.845 -7.22194 607.094L-7.16194 592.843L-7.14894 578.603L-7.14296 571.483L-7.13996 567.923C-7.13596 566.735 -7.10892 565.579 -7.09492 564.405C-6.98792 555.045 -6.34094 545.709 -5.39094 536.415L-5.03095 532.93C-4.90995 531.768 -4.76693 530.607 -4.63593 529.446C-4.36993 527.125 -4.10194 524.803 -3.80994 522.48L-2.94593 515.508L-2.50794 512.018C-2.36694 510.839 -2.19894 509.75 -2.04694 508.612C-1.39394 504.111 -0.511972 499.679 0.483029 495.266C1.47803 490.851 2.57603 486.441 3.58703 481.918C4.59804 477.399 5.51505 472.753 6.14905 467.962C6.23805 467.372 6.30805 466.76 6.37305 466.143L6.57605 464.3C6.65205 463.675 6.68806 463.1 6.73706 462.509L6.87708 460.743L6.91205 460.302C6.92705 460.108 6.92305 460.12 6.93005 460.018L6.94208 459.794L6.99109 458.899L7.08807 457.109L7.28204 453.528C7.72805 443.971 7.83006 434.384 7.66407 424.825C7.60607 422.435 7.56107 420.048 7.49207 417.657C7.40307 415.268 7.32905 412.863 7.22705 410.487L7.05909 406.937L6.97504 405.162L6.93305 404.275L6.87506 403.349C6.73406 400.933 6.54708 398.53 6.31708 396.146C5.41108 386.599 3.92805 377.372 2.95905 368.146L2.62006 364.686L2.33905 361.224L2.12805 357.762C2.08405 356.619 2.03005 355.494 1.99305 354.336L1.93305 350.824L1.89209 347.254L1.81104 340.115C1.77504 337.736 1.77609 335.354 1.71009 332.977L1.54706 325.844L1.38404 318.711L1.15204 311.585C0.542044 292.583 -0.35692 273.619 -1.38592 254.691L-4.56994 197.959C-5.60294 179.058 -6.55993 160.155 -7.21893 141.236L-7.64593 127.044C-7.72693 124.677 -7.76295 122.316 -7.80895 119.954L-7.94494 112.867C-8.06194 108.152 -8.05593 103.391 -8.09893 98.648L-8.14593 91.5519L-8.17492 84.4258L-8.23394 70.1737C-8.25794 65.423 -8.25591 60.6717 -8.32891 55.9221L-8.67791 27.4221L-9.22191 0.00103686L-12.0319 0.00103673L-11.5139 27.5378L-11.1819 55.9864C-11.1119 60.7275 -11.1169 65.4701 -11.0959 70.2128L-11.046 84.4398L-11.0209 91.553L-10.978 98.6962C-10.938 103.445 -10.9469 108.18 -10.8319 112.952L-10.6989 120.098C-10.6539 122.48 -10.6189 124.864 -10.5389 127.237L-10.1179 141.493C-9.46691 160.49 -8.51891 179.442 -7.49591 198.369L-4.34491 255.1C-3.32891 274.002 -2.44292 292.91 -1.84692 311.831L-1.61993 318.927L-1.45593 326.024L-1.29193 333.121C-1.22493 335.487 -1.22594 337.853 -1.18994 340.219L-1.10693 347.317L-1.06592 350.866L-1.00397 354.471C-0.868966 359.414 -0.496918 364.185 0.00708172 368.945C1.01108 378.443 2.49105 387.637 3.36505 396.869C3.58805 399.176 3.76708 401.485 3.90308 403.795L3.95703 404.639L4.00006 405.526L4.08508 407.301L4.25409 410.85C4.35609 413.209 4.42705 415.546 4.51605 417.895C4.58505 420.245 4.63005 422.603 4.68805 424.956C4.85405 434.374 4.75607 443.797 4.32007 453.175L4.13007 456.688L4.03503 458.444L3.98804 459.322L3.96704 459.701L3.93207 460.142L3.79205 461.908C3.74405 462.493 3.70608 463.1 3.63708 463.639L3.45209 465.301C3.39409 465.854 3.33103 466.409 3.24603 466.973C2.65203 471.472 1.78306 475.9 0.797055 480.313C-0.186945 484.729 -1.28393 489.137 -2.29993 493.65C-3.31493 498.163 -4.24194 502.789 -4.92194 507.539C-5.26494 509.941 -5.54292 512.255 -5.83192 514.582L-6.68995 521.579C-6.87295 523.052 -7.04693 524.532 -7.21693 526.013L-6.98396 518.857L-6.74793 511.608L-6.62995 507.984L-6.57093 506.172L-6.50092 504.403L-6.35297 500.787L-6.27692 498.98L-6.15394 497.206C-5.98394 494.839 -5.84794 492.48 -5.61494 490.096C-4.79294 480.583 -3.62995 471.057 -3.03894 461.34L-2.91797 459.522L-2.84693 457.693L-2.70496 454.035C-2.68596 453.417 -2.64892 452.835 -2.64392 452.188L-2.62293 450.376L-2.57996 446.752L-2.49494 439.504L-2.45197 435.88L-2.45691 432.247L-2.50092 417.712L-2.62396 403.213L-2.78095 374.225C-2.79495 371.808 -2.79492 369.394 -2.82092 366.975L-2.91296 359.715L-3.00494 352.457C-3.03994 350.037 -3.10991 347.62 -3.15991 345.201C-3.58291 325.859 -4.34293 306.516 -5.76593 287.276C-6.13993 282.47 -6.56595 277.674 -6.96295 272.873C-7.14395 270.469 -7.41791 268.086 -7.66491 265.696L-8.41693 258.53L-9.93097 244.244C-10.477 239.483 -10.84 234.709 -11.275 229.939C-12.903 210.832 -13.9179 191.575 -14.5419 172.296C-15.7849 133.721 -15.4799 95.0507 -15.2379 56.3967C-15.1709 46.7314 -15.1159 37.0644 -15.0809 27.3969C-15.0779 22.5557 -15.0499 17.7434 -15.0679 12.8785L-15.1539 5.63086L-15.197 2.00675L-15.2589 0.00103659L-16.3239 0.00103655L-16.2599 2.03943L-16.2189 5.66354L-16.137 12.9112C-16.122 17.7117 -16.1519 22.5648 -16.1569 27.3889C-16.1969 37.0516 -16.2559 46.7148 -16.3279 56.3791C-16.5539 86.3485 -16.8209 116.349 -16.3749 146.34C-16.4579 144.012 -16.5289 141.681 -16.6349 139.355C-17.5909 118.586 -19.278 97.9489 -21.041 77.3598L-22.3709 61.9194L-22.7039 58.0596C-22.7579 57.4173 -22.819 56.7712 -22.866 56.1316L-22.9919 54.2078L-23.2449 50.3598C-23.2849 49.718 -23.3339 49.0778 -23.3669 48.435L-23.431 46.5C-23.845 36.1853 -23.6619 25.8085 -23.4349 15.4334C-23.3159 10.3028 -23.2029 5.15193 -23.1219 0.00264339L-24.2239 0.00264334C-24.3099 5.12086 -24.4269 10.2353 -24.5519 15.3685C-24.7899 25.7534 -24.9869 36.1842 -24.5789 46.6183L-24.5159 48.5742C-24.4839 49.2257 -24.435 49.8755 -24.395 50.5259L-24.142 54.4285L-24.0159 56.3801C-23.9679 57.03 -23.9079 57.6685 -23.8549 58.3135L-23.5259 62.1744L-22.2129 77.6169C-20.4729 98.2033 -18.811 118.807 -17.882 139.499C-17.769 142.085 -17.7009 144.675 -17.6089 147.263L-17.4789 151.145C-17.4449 152.44 -17.3719 153.733 -17.3699 155.028L-17.2759 162.798L-17.2289 166.682L-17.2189 167.639L-17.228 168.613L-17.2459 170.561C-17.2619 171.858 -17.261 173.162 -17.291 174.453L-17.3909 178.321L-17.442 180.255L-17.52 182.192L-17.676 186.066C-17.927 191.23 -18.2239 196.389 -18.5889 201.543C-19.2979 211.854 -20.173 222.149 -20.892 232.495C-21.264 237.664 -21.5649 242.853 -21.8279 248.048C-22.0579 253.249 -22.2529 258.459 -22.2969 263.681L-22.335 267.59L-22.3569 271.484C-22.3819 274.066 -22.42 276.659 -22.465 279.254C-22.553 284.444 -22.653 289.647 -22.671 294.863C-22.688 300.079 -22.628 305.313 -22.359 310.543C-22.092 315.764 -21.6229 321.009 -20.8259 326.113C-20.8209 326.147 -20.8159 326.18 -20.8109 326.214C-22.4329 319.6 -24.313 313.258 -26.062 306.905C-27.361 302.183 -28.5879 297.45 -29.591 292.64C-30.595 287.832 -31.3699 282.941 -31.7719 277.992L-31.9899 274.274L-32.004 274.041C-32.01 273.96 -32.0099 273.932 -32.0129 273.828L-32.0269 273.341L-32.056 272.367L-32.1129 270.42L-32.3419 262.631C-32.4319 260.03 -32.46 257.452 -32.51 254.865L-32.648 247.111C-32.925 226.389 -32.7039 205.634 -32.3109 184.879C-31.9129 164.121 -31.329 143.356 -30.83 122.566C-30.327 101.777 -29.9319 80.955 -29.9139 60.1071L-29.913 52.2889L-29.913 51.8003L-29.921 51.2587L-29.9379 50.2842L-29.9709 48.3358L-30.038 44.4385L-30.0709 42.4901L-30.1469 40.5166L-30.2989 36.5689C-30.3529 35.2559 -30.393 33.9305 -30.46 32.6276L-30.666 28.7234C-31.162 19.0907 -31.828 9.53193 -32.296 0.00478585L-35.754 0.0047857C-35.272 9.80032 -34.5859 19.5053 -34.0809 29.1846L-33.874 33.0492C-33.807 34.3366 -33.769 35.6078 -33.715 36.8882L-33.564 40.7223L-33.4879 42.6396L-33.4529 44.588L-33.3829 48.4853L-33.348 50.4337L-33.3309 51.4082L-33.3239 51.8405L-33.3239 52.3264L-33.3189 60.1028C-33.3219 80.8425 -33.6999 101.597 -34.1879 122.362C-34.6709 143.128 -35.2439 163.909 -35.6229 184.72C-35.9979 205.53 -36.2009 226.371 -35.9039 247.228L-35.757 255.062C-35.704 257.672 -35.6729 260.292 -35.5809 262.881L-35.3449 270.669L-35.286 272.616L-35.2559 273.59L-35.241 274.077C-35.239 274.135 -35.2359 274.269 -35.2299 274.349L-35.215 274.602L-34.9749 278.646C-34.5349 284.012 -33.6959 289.237 -32.6379 294.279C-31.5799 299.326 -30.3079 304.2 -28.9869 308.984C-27.6629 313.768 -26.2919 318.464 -25.0289 323.193C-24.7029 324.372 -24.404 325.558 -24.103 326.743L-23.65 328.521L-23.2319 330.31C-22.9529 331.503 -22.6649 332.698 -22.4349 333.878L-22.067 335.654L-21.8839 336.546L-21.7199 337.484C-19.9199 347.239 -19.2329 357.383 -19.4439 367.551C-19.6439 377.722 -20.71 387.879 -22.057 397.954C-22.378 400.464 -22.772 403.008 -23.098 405.553L-24.1069 413.256L-24.965 420.999C-25.235 423.583 -25.4489 426.18 -25.6939 428.77C-27.4829 449.531 -28.081 470.45 -28.213 491.287C-28.286 501.71 -28.258 512.123 -28.205 522.523L-28.073 553.716C-27.934 574.628 -26.888 595.361 -26.939 616.036C-26.963 626.365 -27.246 636.678 -28.09 646.847C-28.267 649.409 -28.565 651.89 -28.831 654.392L-29.036 656.268L-29.3029 658.169L-29.8369 661.973L-30.938 669.58C-31.136 670.856 -31.276 672.145 -31.44 673.429L-31.917 677.283C-33.134 687.573 -34.028 697.902 -35 708.16C-35.234 710.734 -35.494 713.276 -35.749 715.824C-35.88 717.099 -35.995 718.369 -36.14 719.649L-36.57 723.486L-36.9959 727.311C-37.1259 728.628 -37.292 729.944 -37.392 731.261C-37.616 733.894 -37.7829 736.526 -37.9099 739.14C-38.0439 741.757 -38.14 744.364 -38.25 746.947C-38.293 747.979 -38.337 748.992 -38.383 750.003L-35.668 750.003C-35.625 749.077 -35.583 748.154 -35.544 747.245C-35.429 744.642 -35.329 742.06 -35.193 739.497C-35.064 736.929 -34.898 734.389 -34.679 731.873C-34.581 730.609 -34.422 729.376 -34.297 728.127L-33.862 724.278L-33.425 720.442C-33.278 719.166 -33.1569 717.863 -33.0219 716.575C-32.7589 713.992 -32.49 711.405 -32.252 708.836C-31.261 698.542 -30.361 688.271 -29.149 678.133L-28.675 674.34C-28.513 673.078 -28.373 671.806 -28.177 670.559L-27.07 662.98L-26.5319 659.178L-26.263 657.276L-26.044 655.314C-25.758 652.693 -25.444 650.067 -25.26 647.46C-24.381 637.016 -24.084 626.512 -24.047 616.055C-23.974 595.13 -24.9979 574.35 -25.1079 553.676L-25.2039 522.49C-25.2449 512.097 -25.2649 501.716 -25.1829 491.347C-25.0329 470.615 -24.417 449.902 -22.637 429.458C-22.394 426.91 -22.181 424.352 -21.913 421.811L-21.0629 414.202L-20.0659 406.646C-19.7369 404.099 -19.3469 401.598 -19.0139 399.017C-17.6369 388.78 -16.5239 378.346 -16.3029 367.715C-16.1919 362.407 -16.307 357.068 -16.692 351.769C-16.792 350.386 -16.9119 349.004 -17.0499 347.626C-14.5529 360.395 -11.8729 373.018 -10.2659 385.998C-9.04593 396.096 -8.81195 406.42 -9.28095 416.683C-9.75595 426.951 -10.8919 437.138 -12.3029 447.231C-13.7189 457.33 -15.403 467.351 -16.979 477.45C-17.765 482.501 -18.5209 487.573 -19.1929 492.685L-19.32 493.643L-19.434 494.636L-19.6519 496.552L-20.088 500.385C-20.327 502.98 -20.553 505.597 -20.768 508.202C-21.526 518.607 -21.7959 529.063 -21.8389 539.491C-21.8789 549.922 -21.685 560.335 -21.448 570.726C-21.211 581.118 -20.9249 591.493 -20.7869 601.853C-20.7509 604.444 -20.7189 607.033 -20.7169 609.62L-20.7009 613.474L-20.744 617.37L-20.83 625.162C-20.849 626.459 -20.849 627.763 -20.883 629.054L-20.9979 632.926C-21.5319 653.58 -22.89 674.237 -24.557 694.805C-24.96 699.951 -25.407 705.094 -25.849 710.237L-27.1939 725.668C-27.4099 728.248 -27.678 730.765 -27.814 733.51C-27.95 736.185 -27.985 738.831 -27.979 741.468C-27.971 744.33 -27.91 747.172 -27.834 750.003L-25.331 750.003C-25.414 747.138 -25.481 744.284 -25.495 741.445C-25.506 738.887 -25.4769 736.334 -25.3549 733.829C-25.2429 731.392 -24.978 728.777 -24.767 726.209L-23.4539 710.76C-23.0219 705.607 -22.586 700.456 -22.193 695.29C-20.566 674.64 -19.2449 653.914 -18.7509 633.03L-18.6439 629.117C-18.6129 627.814 -18.6159 626.518 -18.5999 625.219L-18.531 617.426L-18.497 613.53L-18.521 609.591C-18.529 606.982 -18.5659 604.377 -18.6079 601.774C-18.7699 591.358 -19.079 580.971 -19.338 570.597C-19.597 560.223 -19.8119 549.858 -19.7949 539.507C-19.7759 529.158 -19.5299 518.816 -18.8049 508.57C-18.5989 506.024 -18.3869 503.492 -18.1599 500.947L-17.7319 497.112L-17.518 495.194L-17.4149 494.27L-17.291 493.321C-16.638 488.262 -15.8979 483.223 -15.1259 478.188C-13.5779 468.119 -11.9109 458.061 -10.5059 447.874C-9.10593 437.69 -7.97295 427.357 -7.50995 416.887C-7.05195 406.435 -7.31596 395.81 -8.58496 385.5C-11.194 364.863 -16.3319 345.641 -19.2919 325.514C-20.8609 315.57 -21.172 305.208 -21.158 294.873C-21.15 289.699 -21.0579 284.513 -20.9789 279.317C-20.9389 276.718 -20.9049 274.117 -20.8829 271.504L-20.8679 267.605L-20.8369 263.722C-20.8029 258.553 -20.618 253.386 -20.398 248.222C-20.145 243.059 -19.8549 237.899 -19.4919 232.744C-18.7929 222.433 -17.935 212.13 -17.241 201.78C-16.884 196.608 -16.5939 191.418 -16.3499 186.221L-16.1999 182.318L-16.1249 180.366L-16.0759 178.407L-15.9819 174.489C-15.9539 173.184 -15.9569 171.889 -15.9429 170.589L-15.9279 168.641L-15.9219 167.857C-15.8799 169.372 -15.84 170.887 -15.793 172.402C-15.195 191.732 -14.205 211.035 -12.598 230.242C-12.171 235.038 -11.8129 239.864 -11.2789 244.614L-9.79492 258.922L-9.06195 266.058C-8.82195 268.437 -8.55397 270.809 -8.37897 273.205C-7.99397 277.987 -7.57996 282.764 -7.21796 287.55C-5.84196 306.717 -5.12591 325.997 -4.74591 345.289C-4.70091 347.7 -4.63593 350.112 -4.60693 352.524L-4.53095 359.76L-4.45496 366.997C-4.43396 369.41 -4.43893 371.828 -4.42993 374.244L-4.34296 403.248L-4.25696 417.742L-4.24994 432.204L-4.25397 435.82L-4.30597 439.443L-4.40992 446.69L-4.46192 450.314L-4.48792 452.126C-4.49292 452.686 -4.53195 453.308 -4.55195 453.896L-4.69996 457.473L-4.77393 459.261L-4.89795 461.046C-5.49996 470.575 -6.67897 480.041 -7.53797 489.667C-7.77797 492.057 -7.92792 494.511 -8.10792 496.944L-8.23896 498.771L-8.31995 500.58L-8.47694 504.195L-8.55494 506.044L-8.61793 507.851L-8.74494 511.465L-8.99897 518.692L-9.50593 533.148L-9.63697 536.761L-9.81495 540.371L-10.171 547.59C-10.659 557.213 -11.0689 566.845 -11.6959 576.452C-12.8039 595.684 -14.1239 614.887 -15.4849 634.085L-19.724 691.671L-21.804 720.485L-23.749 749.334L-23.794 750.002L-14.471 750.002C-14.035 749.62 -13.6139 749.195 -13.2169 748.717C-12.5379 747.885 -11.9419 746.919 -11.4119 745.891ZM-21.067 747.776L-19.312 720.928L-17.291 692.124L-13.1909 634.499C-12.0619 617.99 -10.973 601.47 -10.012 584.926L-10.0089 592.838L-10.051 607.066C-10.074 611.808 -10.06 616.552 -10.114 621.291L-10.268 635.509L-10.3449 642.618C-10.3529 643.803 -10.3759 644.986 -10.4069 646.17L-10.489 649.72L-10.8189 663.921L-10.982 671.064C-11.016 673.567 -10.9609 675.951 -10.8889 678.359C-10.5649 687.935 -9.96196 697.344 -9.72896 706.759C-9.60896 711.46 -9.56794 716.153 -9.70394 720.805C-9.84894 725.444 -10.1449 730.078 -10.8709 734.439C-11.2279 736.618 -11.706 738.715 -12.341 740.615C-12.978 742.509 -13.7919 744.175 -14.7869 745.411C-15.2889 746.016 -15.832 746.517 -16.409 746.913C-16.991 747.293 -17.61 747.545 -18.245 747.721C-19.159 747.927 -20.108 747.929 -21.067 747.776Z" fill="#B06533"/>
<path d="M-2.94095 718.651L-2.32394 717.244L-1.79898 715.748C-1.15898 713.704 -0.717963 711.529 -0.369962 709.33C0.313038 704.917 0.587015 700.392 0.756015 695.883C1.05202 686.848 0.824032 677.816 0.672032 668.81C0.603032 664.306 0.525026 659.801 0.615026 655.317C0.663026 653.077 0.739038 650.836 0.940039 648.638L1.54404 641.944C2.33204 633.008 3.00804 624.04 3.41904 615.026C3.50704 612.771 3.63104 610.52 3.67704 608.261C3.73204 606.003 3.82107 603.746 3.82707 601.485C3.89007 596.96 3.88803 592.46 3.90403 587.95C3.91103 583.44 3.93902 578.935 3.97502 574.429L4.02305 567.671L4.10801 560.915C4.20701 551.905 4.40706 542.901 4.65806 533.905L5.12303 520.417L5.76707 506.953C6.02607 502.473 6.34003 498.001 6.62303 493.525C6.74903 491.284 6.95503 489.059 7.14403 486.83L7.71404 480.146L7.99907 476.804C8.09407 475.734 8.23604 474.596 8.35204 473.495C8.61704 471.295 8.91405 469.153 9.26805 466.979C9.96305 462.65 10.805 458.372 11.683 454.099C13.434 445.559 15.3571 437.01 16.4871 428.047L16.8661 424.673C16.9751 423.544 17.0581 422.405 17.1551 421.271L17.1901 420.845L17.2161 420.403L17.2631 419.561L17.357 417.877C17.431 416.764 17.4501 415.604 17.4941 414.465C17.6351 409.899 17.6151 405.355 17.4631 400.81C17.1261 391.73 16.2961 382.712 15.0281 373.862C14.3941 369.436 13.6601 365.048 12.8271 360.708L12.199 357.487L11.5861 354.252C11.1831 352.094 10.7451 349.94 10.4181 347.778C8.93308 339.18 7.84307 330.341 6.99407 321.487C6.15107 312.62 5.54207 303.69 5.17907 294.724C4.80007 285.761 4.59407 276.774 4.48907 267.778C4.39707 258.78 4.39405 249.774 4.40905 240.761L4.43603 227.235L4.43908 225.544L4.42907 223.833L4.40509 220.452C4.38209 218.196 4.38806 215.949 4.34106 213.685C4.23406 209.16 4.17205 204.618 4.00305 200.114L3.77905 193.346L3.50903 186.589L2.36303 159.603L2.09906 152.865L1.88104 146.128L1.65905 139.362C1.59605 137.124 1.46404 134.835 1.34704 132.559C0.295044 114.437 -2.18496 96.7842 -3.05896 78.9605C-3.29396 74.5082 -3.38693 70.0521 -3.41193 65.5992L-3.35694 52.0864L-3.29193 38.5634L-3.17096 25.0505L-2.91992 0.0010367L-5.36194 0.00103659L-5.56592 25.0076L-5.66193 38.5419L-5.69995 52.0671L-5.72895 65.603C-5.69595 70.1651 -5.59096 74.7251 -5.34296 79.2573C-4.41196 97.4142 -1.89395 115.08 -0.83295 132.881C-0.71595 135.097 -0.582919 137.298 -0.51392 139.563L-0.279972 146.302L-0.0479164 153.071L0.230038 159.829L1.42706 186.81L1.70904 193.549L1.94506 200.285C2.12506 204.78 2.19608 209.255 2.31408 213.738C2.36708 215.98 2.36607 218.242 2.39507 220.494L2.42803 223.874L2.44207 225.544L2.44305 227.234L2.45007 240.758C2.45807 249.778 2.48405 258.805 2.59905 267.837C2.72805 276.869 2.95805 285.906 3.36205 294.932C3.75105 303.958 4.38808 312.967 5.26208 321.919C6.14608 330.876 7.26104 339.754 8.80004 348.528C9.14304 350.746 9.58306 352.876 9.99206 355.035L10.613 358.266L11.251 361.495C12.083 365.766 12.8171 370.087 13.4531 374.444C14.7231 383.159 15.5671 392.035 15.9271 400.954C16.0901 405.411 16.1231 409.894 16.0001 414.334C15.9601 415.445 15.9481 416.54 15.8771 417.67L15.7881 419.355L15.7441 420.197L15.722 420.596L15.6891 421.009C15.5981 422.108 15.5221 423.21 15.4191 424.308L15.061 427.593C13.989 436.339 12.116 444.829 10.383 453.417C9.51504 457.714 8.67706 462.045 7.98406 466.454C7.63406 468.645 7.32804 470.909 7.06804 473.136C6.95304 474.259 6.82105 475.333 6.72105 476.494L6.44505 479.855L5.89403 486.575C5.71103 488.816 5.51207 491.053 5.39207 493.303C5.12107 497.799 4.82106 502.291 4.57506 506.79C3.63505 524.794 3.27005 542.847 3.10105 560.887L3.04106 567.653L3.01902 574.419C3.00002 578.93 2.98906 583.44 2.99906 587.947C3.00006 592.453 3.01806 596.97 2.97306 601.46C2.97506 603.708 2.89504 605.954 2.84904 608.201C2.81204 610.448 2.69702 612.691 2.61802 614.936C2.24502 623.913 1.59806 632.863 0.853064 641.789L0.279027 648.487C0.0830272 650.754 0.0160627 653.024 -0.0219374 655.288C-0.0929377 659.818 0.00604316 664.331 0.096043 668.839C0.288043 677.85 0.55606 686.859 0.301059 695.846C0.154059 700.33 -0.0999577 704.825 -0.752958 709.18C-1.08596 711.35 -1.50999 713.49 -2.12399 715.486L-2.62595 716.943L-3.215 718.308C-3.433 718.729 -3.66399 719.127 -3.88699 719.54C-4.14399 719.917 -4.41596 720.278 -4.67996 720.649L-4.46298 721.056C-4.19698 720.688 -3.92499 720.333 -3.66299 719.954C-3.42299 719.519 -3.17295 719.094 -2.94095 718.651Z" fill="#BC7742"/>
<path d="M27.759 745.891C28.291 744.861 28.7231 743.744 29.1191 742.612C29.8881 740.33 30.4291 737.937 30.8301 735.531C31.6391 730.711 31.949 725.841 32.112 721.012C32.263 716.18 32.229 711.372 32.117 706.588C31.899 697.025 31.311 687.531 31.014 678.146C30.947 675.814 30.903 673.45 30.935 671.207L31.1061 664.121L31.4551 649.863L31.542 646.298C31.575 645.11 31.599 643.921 31.609 642.733L31.695 635.604L31.867 621.347C31.927 616.594 31.919 611.845 31.948 607.094L32.008 592.843L32.021 578.603L32.027 571.483L32.0301 567.923C32.0341 566.735 32.0611 565.579 32.0751 564.405C32.1821 555.045 32.83 545.709 33.779 536.415L34.139 532.93C34.26 531.768 34.403 530.607 34.534 529.446C34.8 527.125 35.068 524.803 35.36 522.48L36.224 515.508L36.662 512.018C36.803 510.839 36.971 509.75 37.123 508.612C37.776 504.111 38.6581 499.679 39.6531 495.266C40.6481 490.851 41.7461 486.441 42.7571 481.918C43.7681 477.399 44.685 472.753 45.319 467.962C45.408 467.372 45.4781 466.76 45.5431 466.143L45.746 464.3C45.822 463.675 45.858 463.1 45.907 462.509L46.047 460.743L46.082 460.302C46.097 460.108 46.093 460.12 46.1 460.018L46.112 459.794L46.1611 458.899L46.258 457.109L46.4521 453.528C46.8981 443.971 47 434.384 46.834 424.825C46.776 422.435 46.731 420.048 46.662 417.657C46.573 415.268 46.499 412.863 46.397 410.487L46.2291 406.937L46.1451 405.162L46.1031 404.275L46.045 403.349C45.904 400.933 45.7171 398.53 45.4871 396.146C44.5811 386.599 43.0981 377.372 42.1291 368.146L41.79 364.686L41.509 361.224L41.298 357.762C41.254 356.619 41.2001 355.494 41.1631 354.336L41.1031 350.824L41.0621 347.254L40.9811 340.115C40.9451 337.736 40.9461 335.354 40.8801 332.977L40.717 325.844L40.5541 318.711L40.3221 311.585C39.7121 292.583 38.8131 273.619 37.7841 254.691L34.6 197.959C33.567 179.058 32.61 160.155 31.9511 141.236L31.524 127.044C31.443 124.677 31.4071 122.316 31.3611 119.954L31.225 112.867C31.108 108.152 31.114 103.391 31.071 98.648L31.0241 91.5519L30.9951 84.4258L30.936 70.1737C30.912 65.423 30.9141 60.6717 30.8411 55.9221L30.4921 27.4221L29.949 0.00103686L27.139 0.00103673L27.657 27.5378L27.9891 55.9864C28.0591 60.7275 28.0541 65.4701 28.0751 70.2128L28.1251 84.4398L28.1501 91.553L28.1931 98.6962C28.2331 103.445 28.2241 108.18 28.3391 112.952L28.472 120.098C28.517 122.48 28.5521 124.864 28.6321 127.237L29.053 141.493C29.704 160.49 30.652 179.442 31.675 198.369L34.826 255.1C35.842 274.002 36.728 292.91 37.324 311.831L37.5511 318.927L37.7151 326.024L37.8791 333.121C37.9461 335.487 37.9451 337.853 37.9811 340.219L38.0641 347.317L38.105 350.866L38.167 354.471C38.302 359.414 38.674 364.185 39.178 368.945C40.182 378.443 41.6621 387.637 42.5361 396.869C42.7591 399.176 42.938 401.485 43.074 403.795L43.128 404.639L43.17 405.527L43.2551 407.301L43.4241 410.851C43.5261 413.21 43.597 415.547 43.686 417.896C43.755 420.246 43.8 422.603 43.858 424.957C44.024 434.375 43.926 443.798 43.49 453.176L43.3 456.688L43.2051 458.444L43.1581 459.322L43.1371 459.701L43.102 460.143L42.962 461.908C42.914 462.493 42.8761 463.101 42.8071 463.639L42.6221 465.301C42.5641 465.855 42.5011 466.41 42.4161 466.973C41.8221 471.473 40.953 475.901 39.967 480.314C38.983 484.729 37.886 489.138 36.87 493.651C35.855 498.164 34.928 502.789 34.248 507.539C33.905 509.942 33.6271 512.256 33.3381 514.582L32.48 521.579C32.297 523.053 32.123 524.532 31.953 526.013L32.186 518.857L32.422 511.609L32.54 507.985L32.599 506.172L32.6691 504.404L32.8171 500.787L32.8931 498.98L33.016 497.207C33.186 494.84 33.322 492.481 33.555 490.096C34.377 480.584 35.54 471.057 36.131 461.34L36.2521 459.523L36.323 457.694L36.4651 454.036C36.4841 453.418 36.521 452.836 36.526 452.188L36.547 450.377L36.5901 446.752L36.675 439.505L36.7181 435.881L36.7131 432.247L36.6691 417.713L36.5461 403.213L36.389 374.226C36.375 371.809 36.3751 369.395 36.3491 366.975L36.2571 359.716L36.165 352.457C36.13 350.038 36.0601 347.62 36.0101 345.202C35.5871 325.859 34.827 306.516 33.404 287.276C33.03 282.471 32.604 277.675 32.207 272.874C32.026 270.469 31.7521 268.086 31.5051 265.697L30.753 258.531L29.2391 244.244C28.6931 239.483 28.3301 234.709 27.8951 229.939C26.2671 210.833 25.252 191.575 24.628 172.297C23.3851 133.721 23.6901 95.0512 23.9321 56.3973C23.9991 46.7319 24.0541 37.065 24.0891 27.3975C24.0921 22.5562 24.1201 17.7439 24.1021 12.8791L24.0161 5.63139L23.9731 2.00729L23.9121 0.00103659L22.8471 0.00103655L22.9111 2.03943L22.9521 5.66354L23.0341 12.9112C23.0491 17.7117 23.019 22.5648 23.014 27.3889C22.974 37.0516 22.9151 46.7148 22.8431 56.3791C22.6171 86.3485 22.3501 116.349 22.7961 146.34C22.7131 144.012 22.6421 141.681 22.5361 139.355C21.5801 118.586 19.8931 97.9489 18.1301 77.3598L16.8001 61.9194L16.467 58.0596C16.413 57.4173 16.3521 56.7712 16.3051 56.1316L16.1791 54.2078L15.9261 50.3598C15.8861 49.718 15.8371 49.0778 15.8041 48.435L15.7401 46.5C15.3261 36.1853 15.5091 25.8085 15.7361 15.4334C15.8551 10.3028 15.9681 5.15193 16.0491 0.00264339L14.9471 0.00264334C14.8611 5.12086 14.7441 10.2353 14.6191 15.3685C14.3811 25.7534 14.184 36.1842 14.592 46.6183L14.6551 48.5742C14.6871 49.2257 14.7361 49.8755 14.7761 50.5259L15.0291 54.4285L15.1551 56.3801C15.2031 57.03 15.263 57.6685 15.316 58.3135L15.6451 62.1744L16.9581 77.6169C18.6981 98.2033 20.3601 118.807 21.2891 139.499C21.4021 142.085 21.4701 144.675 21.5621 147.263L21.6921 151.145C21.7261 152.44 21.7991 153.733 21.8011 155.028L21.8951 162.798L21.9421 166.682L21.9521 167.639L21.9431 168.613L21.925 170.561C21.909 171.858 21.9101 173.162 21.8801 174.453L21.7801 178.321L21.7291 180.255L21.6511 182.192L21.4951 186.066C21.2441 191.23 20.947 196.389 20.582 201.543C19.873 211.854 18.998 222.149 18.279 232.495C17.907 237.664 17.6061 242.853 17.3431 248.048C17.1131 253.249 16.9181 258.459 16.8741 263.681L16.8361 267.59L16.8141 271.484C16.7891 274.066 16.751 276.659 16.706 279.254C16.618 284.444 16.5181 289.647 16.5001 294.863C16.4831 300.079 16.5431 305.313 16.8121 310.543C17.0791 315.764 17.548 321.009 18.345 326.113C18.35 326.147 18.355 326.18 18.36 326.214C16.738 319.6 14.8581 313.258 13.1091 306.905C11.8101 302.183 10.5831 297.45 9.58007 292.64C8.57607 287.832 7.80104 282.941 7.39904 277.992L7.18108 274.274L7.16704 274.041C7.16104 273.96 7.16107 273.932 7.15807 273.828L7.14403 273.341L7.11504 272.367L7.05804 270.42L6.82903 262.631C6.73903 260.03 6.71106 257.452 6.66106 254.865L6.52306 247.111C6.24606 226.389 6.46704 205.634 6.86004 184.879C7.25804 164.121 7.84206 143.356 8.34106 122.566C8.84406 101.777 9.23904 80.955 9.25604 60.1071L9.25708 52.2889L9.25708 51.8003L9.24909 51.2587L9.23206 50.2842L9.20007 48.3332L9.13306 44.4359L9.10004 42.4875L9.02405 40.5139L8.87207 36.5662C8.81807 35.2532 8.77806 33.9278 8.71106 32.625L8.50507 28.7207C8.00907 19.088 7.34306 9.52925 6.87506 0.00210728L3.41706 0.00210713C3.89906 9.79764 4.58509 19.5026 5.09009 29.1819L5.29706 33.0466C5.36406 34.3339 5.40206 35.6051 5.45606 36.8855L5.60706 40.7196L5.68305 42.6369L5.71808 44.5853L5.78809 48.4826L5.82306 50.431L5.84009 51.4055L5.84705 51.8378L5.84705 52.3237L5.85205 60.1001C5.84905 80.8398 5.47103 101.594 4.98303 122.36C4.50003 143.126 3.92703 163.907 3.54803 184.717C3.17303 205.528 2.97008 226.369 3.26708 247.226L3.41405 255.059C3.46705 257.669 3.49808 260.289 3.59008 262.878L3.82604 270.666L3.88506 272.614L3.91503 273.587L3.93004 274.074C3.93204 274.132 3.93503 274.266 3.94103 274.346L3.95605 274.599L4.19604 278.643C4.63604 284.009 5.47507 289.234 6.53307 294.276C7.59107 299.323 8.86307 304.197 10.1841 308.981C11.5081 313.765 12.8791 318.461 14.1421 323.19C14.4681 324.369 14.767 325.555 15.068 326.741L15.521 328.519L15.9391 330.307C16.2181 331.5 16.5061 332.696 16.7361 333.876L17.1041 335.651L17.287 336.543L17.451 337.482C19.251 347.237 19.938 357.381 19.727 367.549C19.527 377.72 18.4611 387.876 17.1141 397.951C16.7931 400.461 16.399 403.005 16.073 405.551L15.0641 413.253L14.206 420.996C13.936 423.581 13.722 426.178 13.477 428.767C11.688 449.528 11.0901 470.448 10.9581 491.285C10.8851 501.708 10.913 512.12 10.966 522.521L11.0981 553.713C11.2371 574.626 12.283 595.358 12.232 616.033C12.208 626.362 11.925 636.675 11.081 646.844C10.904 649.407 10.6061 651.888 10.3401 654.389L10.135 656.265L9.86802 658.167L9.33402 661.97L8.23301 669.577C8.03501 670.853 7.89505 672.142 7.73105 673.426L7.25406 677.28C6.03706 687.57 5.14305 697.899 4.17105 708.157C3.93705 710.731 3.67703 713.273 3.42203 715.821C3.29103 717.096 3.17604 718.366 3.03104 719.646L2.60104 723.484L2.17502 727.309C2.04502 728.625 1.87902 729.942 1.77902 731.258C1.55502 733.891 1.38802 736.523 1.26102 739.138C1.12702 741.755 1.03105 744.361 0.921051 746.945C0.878051 747.976 0.834055 748.989 0.788055 750L3.50302 750C3.54602 749.075 3.58804 748.152 3.62705 747.242C3.74205 744.639 3.84206 742.057 3.97806 739.494C4.10706 736.927 4.27304 734.386 4.49204 731.87C4.59004 730.606 4.74906 729.374 4.87406 728.124L5.30905 724.275L5.746 720.44C5.893 719.163 6.01402 717.861 6.14902 716.572C6.41202 713.989 6.68104 711.402 6.91904 708.833C7.91004 698.54 8.81001 688.268 10.022 678.13L10.496 674.338C10.658 673.076 10.7981 671.803 10.9941 670.557L12.101 662.977L12.639 659.175L12.9081 657.274L13.1271 655.311C13.4131 652.691 13.727 650.064 13.911 647.458C14.79 637.013 15.0871 626.51 15.1241 616.052C15.1971 595.127 14.173 574.348 14.063 553.673L13.967 522.487C13.926 512.095 13.906 501.713 13.988 491.344C14.138 470.613 14.754 449.9 16.534 429.456C16.777 426.907 16.99 424.349 17.258 421.808L18.108 414.199L19.105 406.643C19.434 404.097 19.824 401.595 20.157 399.014C21.534 388.777 22.647 378.343 22.868 367.712C22.979 362.405 22.8641 357.065 22.4791 351.766C22.3791 350.383 22.259 349.001 22.121 347.623C24.618 360.393 27.2981 373.016 28.9051 385.995C30.1251 396.094 30.3591 406.417 29.8901 416.681C29.4151 426.949 28.279 437.135 26.868 447.229C25.452 457.327 23.7681 467.348 22.1921 477.447C21.4061 482.498 20.6501 487.57 19.9781 492.682L19.8511 493.64L19.737 494.633L19.519 496.55L19.0831 500.383C18.8441 502.978 18.6181 505.595 18.4031 508.199C17.6451 518.605 17.375 529.06 17.332 539.488C17.292 549.92 17.4861 560.332 17.7231 570.724C17.9601 581.115 18.246 591.49 18.384 601.851C18.42 604.441 18.452 607.031 18.454 609.618L18.47 613.471L18.427 617.367L18.341 625.159C18.322 626.456 18.3221 627.76 18.2881 629.052L18.173 632.923C17.639 653.577 16.281 674.234 14.614 694.803C14.211 699.949 13.7641 705.091 13.3221 710.234L11.977 725.665C11.761 728.246 11.493 730.762 11.357 733.507C11.221 736.182 11.186 738.829 11.192 741.465C11.2 744.327 11.261 747.17 11.337 750L13.8401 750C13.7571 747.135 13.6901 744.281 13.6761 741.442C13.6651 738.884 13.694 736.331 13.816 733.826C13.928 731.389 14.193 728.774 14.404 726.206L15.717 710.758C16.149 705.605 16.5851 700.453 16.9781 695.287C18.6051 674.637 19.926 653.911 20.42 633.028L20.527 629.114C20.558 627.811 20.555 626.516 20.571 625.216L20.6401 617.423L20.674 613.527L20.6501 609.588C20.6421 606.979 20.605 604.374 20.563 601.771C20.401 591.355 20.092 580.969 19.833 570.594C19.574 560.22 19.359 549.855 19.376 539.504C19.395 529.155 19.6411 518.813 20.3661 508.567C20.5721 506.021 20.784 503.489 21.011 500.945L21.4391 497.109L21.6531 495.191L21.756 494.267L21.88 493.319C22.533 488.26 23.273 483.22 24.045 478.185C25.593 468.117 27.26 458.059 28.665 447.872C30.065 437.688 31.198 427.354 31.66 416.884C32.118 406.432 31.8541 395.807 30.5851 385.497C27.9761 364.86 22.838 345.638 19.878 325.512C18.309 315.568 17.9981 305.205 18.0121 294.87C18.0201 289.696 18.112 284.511 18.191 279.314C18.231 276.716 18.265 274.114 18.287 271.502L18.3021 267.603L18.3331 263.719C18.3671 258.551 18.552 253.383 18.772 248.219C19.025 243.056 19.315 237.897 19.678 232.742C20.377 222.43 21.2351 212.128 21.9291 201.778C22.2861 196.605 22.5761 191.415 22.8201 186.219L22.97 182.315L23.045 180.364L23.0941 178.405L23.188 174.486C23.216 173.181 23.213 171.887 23.227 170.586L23.2421 168.638L23.248 167.855C23.29 169.37 23.3301 170.885 23.3771 172.4C23.9751 191.729 24.9651 211.032 26.5721 230.239C26.9991 235.035 27.357 239.861 27.891 244.611L29.3751 258.919L30.108 266.055C30.348 268.435 30.6161 270.807 30.7911 273.202C31.1761 277.985 31.5901 282.761 31.9521 287.548C33.3281 306.714 34.0441 325.994 34.4241 345.286C34.4691 347.698 34.534 350.109 34.563 352.521L34.639 359.758L34.7151 366.994C34.7361 369.407 34.731 371.826 34.74 374.241L34.8271 403.245L34.9131 417.74L34.92 432.201L34.9161 435.817L34.8641 439.44L34.7601 446.688L34.7081 450.311L34.6821 452.123C34.6771 452.683 34.638 453.305 34.618 453.893L34.47 457.47L34.396 459.258L34.272 461.044C33.67 470.572 32.4911 480.038 31.6321 489.664C31.3921 492.054 31.2421 494.508 31.0621 496.941L30.9311 498.769L30.85 500.577L30.693 504.193L30.615 506.041L30.552 507.848L30.425 511.462L30.1711 518.69L29.664 533.145L29.5331 536.759L29.355 540.368L28.9991 547.587C28.5111 557.211 28.101 566.842 27.474 576.449C26.366 595.681 25.046 614.884 23.685 634.083L19.446 691.669L17.3661 720.483L15.4211 749.331L15.376 749.999L24.699 749.999C25.135 749.617 25.556 749.192 25.953 748.714C26.633 747.885 27.229 746.919 27.759 745.891ZM18.104 747.776L19.859 720.928L21.88 692.124L25.98 634.499C27.109 617.99 28.198 601.47 29.159 584.926L29.162 592.838L29.12 607.066C29.097 611.808 29.111 616.552 29.057 621.291L28.9031 635.509L28.826 642.618C28.818 643.803 28.795 644.986 28.764 646.17L28.682 649.72L28.352 663.921L28.1891 671.064C28.1551 673.567 28.21 675.951 28.282 678.359C28.606 687.935 29.2091 697.344 29.4421 706.759C29.5621 711.46 29.603 716.153 29.467 720.805C29.322 725.444 29.026 730.078 28.3 734.439C27.943 736.618 27.4651 738.715 26.8301 740.615C26.1931 742.509 25.379 744.175 24.384 745.411C23.882 746.016 23.3391 746.517 22.7621 746.913C22.1801 747.293 21.5611 747.545 20.9261 747.721C20.0121 747.927 19.063 747.929 18.104 747.776Z" fill="#B06533"/>
<path d="M-8.38895 745.639L-8.301 745.252L-8.19394 744.815L-7.97995 743.941L-7.55197 742.193C-6.41097 737.534 -5.265 732.863 -4.142 728.154L-2.48996 721.031L-0.975983 713.914L-0.786957 713.024L-0.731965 712.761L-0.689973 712.53L-0.605988 712.07L-0.270966 710.228C-0.0519661 709 0.185031 707.775 0.388031 706.542L0.946014 702.824L1.22501 700.964C1.31201 700.343 1.38203 699.718 1.46103 699.095C2.73503 689.113 3.47203 679.065 3.89603 668.929L4.41202 653.916C4.56202 648.928 4.81103 643.932 5.01303 638.94L5.68906 623.946L6.33701 608.921L6.60605 601.39C6.69105 598.879 6.80101 596.373 6.84501 593.854L7.01804 586.304L7.10001 582.528L7.11905 578.731L7.15604 571.137L7.16501 569.239C7.16201 568.609 7.14502 567.985 7.13602 567.358L7.07004 563.599L6.78904 548.595C6.55704 528.75 8.09001 508.912 9.43601 488.955C10.109 478.968 10.711 468.936 11.005 458.822L11.102 455.013L11.1501 453.109L11.169 451.229L11.207 447.47L11.217 446.531L11.222 446.061L11.22 445.554L11.206 443.666C11.162 438.632 11.1431 433.592 11.0771 428.564L10.469 398.515L10.272 383.482L10.2491 381.602L10.2151 379.707C10.1831 378.417 10.1841 377.122 10.1061 375.838C10.0031 373.261 9.82107 370.7 9.59807 368.153C8.68607 357.956 6.84206 348.19 5.14806 338.592L4.52202 334.992L3.92302 331.395L3.36205 327.799L2.85606 324.234L2.39604 320.547L2.04802 316.953L1.87206 315.136C1.81506 314.53 1.74605 313.927 1.71605 313.313L1.47905 309.645C0.883052 299.85 0.903054 289.922 1.15605 279.978C1.41406 270.028 1.90503 260.046 2.27703 250.003C2.64803 239.948 2.91303 229.878 2.67803 219.641C2.64303 218.366 2.63405 217.062 2.57805 215.81L2.40203 212.06L2.21606 208.258L2.02007 204.531L1.62804 197.076C1.49704 194.592 1.42305 192.093 1.31805 189.602C0.521047 169.661 0.185081 149.624 -0.422918 129.555C-0.549918 124.545 -0.764914 119.501 -0.943914 114.471L-1.08497 110.697L-1.26996 106.949L-1.63996 99.4532L-1.73291 97.5792L-1.81794 95.6951L-1.97596 92.0137C-1.99996 91.3998 -2.03393 90.788 -2.04993 90.1719L-2.08393 88.3194L-2.15393 84.615C-2.19093 82.1426 -2.16792 79.6558 -2.17792 77.1766L-2.09296 69.7071L-1.80792 54.6739C-1.77192 52.1507 -1.71295 49.6071 -1.70795 47.1107L-1.68292 43.351C-1.66892 42.0444 -1.71093 40.8005 -1.72193 39.5217C-1.76893 29.3469 -2.39491 19.2321 -3.19891 9.22818C-3.44791 6.14622 -3.71996 3.07122 -3.99896 0.00103693L-7.60693 0.00103677C-7.30293 3.32193 -7.00794 6.64121 -6.74194 9.96371C-5.94894 19.838 -5.33994 29.7209 -5.29694 39.6069C-5.28594 40.8348 -5.24494 42.0959 -5.25794 43.2959L-5.28296 47.0555C-5.28896 49.5723 -5.34794 52.0392 -5.38294 54.5276L-5.66992 69.5598L-5.75696 77.1267C-5.74696 79.6607 -5.76991 82.1882 -5.73291 84.7269L-5.65992 88.5385L-5.62293 90.4441C-5.60593 91.08 -5.57093 91.7175 -5.54493 92.3539L-5.37793 96.1741L-5.19892 99.9133L-4.82392 107.409L-4.63593 111.157L-4.49396 114.889C-4.31396 119.869 -4.09894 124.828 -3.96894 129.837C-3.34894 149.824 -2.99997 169.886 -2.18397 189.969C-2.07597 192.479 -2.00095 194.99 -1.86695 197.5L-1.46595 205.031L-1.26496 208.797L-1.08192 212.49L-0.902964 216.239C-0.845964 217.487 -0.840955 218.692 -0.806955 219.92L-0.724924 223.589L-0.717966 227.304C-0.719967 228.543 -0.701957 229.779 -0.720957 231.021L-0.774974 234.745C-0.796974 237.226 -0.878943 239.716 -0.942943 242.203C-0.973943 243.591 -1.02093 244.983 -1.07093 246.374C-1.24393 242.929 -1.46693 239.488 -1.76393 236.054L-1.80293 235.575L-1.82197 235.335C-1.82697 235.263 -1.84395 235.103 -1.84895 235.059L-1.95198 234.115L-2.15797 232.226C-2.23997 231.588 -2.33894 230.938 -2.42994 230.295C-2.52594 229.654 -2.60495 228.996 -2.72395 228.377C-2.94795 227.123 -3.15293 225.859 -3.41993 224.631L-3.80396 222.78L-4.22492 220.956C-5.35692 216.093 -6.74297 211.445 -8.09297 206.819C-9.45297 202.198 -10.777 197.59 -11.851 192.855C-11.994 192.267 -12.113 191.669 -12.236 191.073L-12.5989 189.31L-13.2499 185.621L-13.794 181.964C-13.959 180.732 -14.1049 179.487 -14.2609 178.249C-15.3979 168.288 -15.8409 158.11 -15.9869 147.936C-16.1129 137.754 -15.9399 127.552 -15.6169 117.354C-15.0299 96.9428 -14.0189 76.561 -13.4299 56.1075L-13.213 48.4387L-13.072 40.7625C-12.948 35.6469 -12.9669 30.5223 -12.9329 25.4019C-12.9639 16.9301 -12.754 8.47389 -12.507 0.00157227L-13.5519 0.00157223C-13.8269 8.45139 -14.06 16.9253 -14.056 25.3998C-14.106 30.503 -14.1019 35.6057 -14.2419 40.7078L-14.4059 48.361L-14.6459 56.0121C-15.2969 76.4105 -16.3709 96.8019 -17.0219 117.243C-17.3769 127.463 -17.5829 137.717 -17.4869 147.982C-17.3689 158.242 -16.95 168.536 -15.817 178.709C-15.66 179.977 -15.5149 181.245 -15.3489 182.514L-14.7919 186.319L-14.15 190.012L-13.77 191.893C-13.645 192.511 -13.522 193.131 -13.377 193.736C-12.284 198.62 -10.9459 203.318 -9.59895 207.949C-8.25895 212.588 -6.90492 217.187 -5.81892 221.915L-5.41493 223.688L-5.04896 225.478C-4.79296 226.666 -4.60093 227.879 -4.38893 229.084C-4.27493 229.688 -4.20695 230.289 -4.11695 230.89C-4.03395 231.494 -3.94294 232.086 -3.86494 232.7L-3.66395 234.59L-3.56398 235.535C-3.55198 235.648 -3.55093 235.645 -3.54493 235.732L-3.52693 235.968L-3.48994 236.439C-2.64694 246.483 -2.40796 256.664 -2.37996 266.853C-2.34896 277.046 -2.53595 287.261 -2.57795 297.508C-2.59396 300.07 -2.58792 302.635 -2.58192 305.2C-2.55892 307.766 -2.54893 310.359 -2.48793 312.904L-2.44996 314.82L-2.44093 315.299L-2.43593 315.552L-2.42598 315.793L-2.38594 316.758L-2.22493 320.619L-2.06398 324.479L-1.78993 328.321C-1.08693 338.576 0.202039 348.679 1.56804 358.67L2.58903 366.157L3.57506 373.62L4.47606 381.152L4.58903 382.093L4.67204 383.008L4.84202 384.88L5.18303 388.622C5.95003 398.644 5.99903 408.812 5.67503 418.946C5.00703 439.242 2.87902 459.39 0.881022 479.586C-0.114979 489.679 -1.10098 499.857 -1.76199 510.063C-2.45599 520.285 -2.81899 530.542 -3.06399 540.792C-3.54799 561.297 -3.36694 581.774 -3.44094 602.196C-3.46794 612.409 -3.57897 622.607 -3.84597 632.785C-3.91498 635.329 -3.97098 637.878 -4.07998 640.406C-4.18298 642.942 -4.25594 645.465 -4.38394 648.012L-4.77597 655.655C-4.84997 656.865 -4.94998 658.133 -5.03598 659.37C-5.11998 660.615 -5.26494 661.85 -5.37594 663.09C-6.38394 672.999 -8.242 682.679 -10.405 692.217C-12.563 701.766 -15.0279 711.208 -17.1469 720.95C-19.1809 730.293 -20.886 739.986 -21.579 750.001L-18.73 750.001C-18.066 740.642 -16.467 731.444 -14.518 722.415C-12.454 712.837 -10.0089 703.393 -7.83694 693.707C-5.66194 684.034 -3.76096 674.073 -2.73196 663.776C-2.61796 662.486 -2.47098 661.205 -2.38498 659.908C-2.29698 658.603 -2.19796 657.335 -2.11996 656.001L-1.741 648.357C-1.617 645.807 -1.54595 643.222 -1.44595 640.656C-1.33995 638.083 -1.28799 635.522 -1.22299 632.958C-0.971989 622.703 -0.877947 612.45 -0.867946 602.213C-0.829945 581.74 -1.03896 561.305 -0.606957 540.931C-0.385957 530.748 -0.0479573 520.573 0.617043 510.458C1.25204 500.318 2.20302 490.274 3.17802 480.165C4.95102 461.816 6.84602 443.389 7.65202 424.728L7.73503 428.703C7.80403 433.699 7.82503 438.685 7.87303 443.677L7.88902 445.548L7.89207 445.981L7.88804 446.451L7.88005 447.39L7.84605 451.15L7.82902 453.03L7.78404 454.883L7.69401 458.588C7.41801 468.508 6.83604 478.45 6.17704 488.399C5.52304 498.352 4.80602 508.335 4.29002 518.384C3.77502 528.431 3.45704 538.55 3.58604 548.691L3.88602 563.752L3.95701 567.51C3.96701 568.136 3.98501 568.764 3.98801 569.388L3.98105 571.249L3.95206 578.694L3.93802 582.417L3.86106 586.156L3.69901 593.636C3.66001 596.129 3.55304 598.625 3.47104 601.12L3.21305 608.605L2.58603 623.588L1.92801 638.597C1.73101 643.61 1.48805 648.611 1.34305 653.638L0.845003 668.66C0.445002 678.529 -0.270964 688.444 -1.49496 698.113C-1.57096 698.718 -1.63795 699.328 -1.72195 699.929L-1.98996 701.726L-2.52396 705.32C-2.71796 706.509 -2.94499 707.681 -3.15299 708.863L-3.47195 710.632L-3.55197 711.074L-3.59195 711.296L-3.62997 711.478L-3.81796 712.369L-5.32297 719.489L-6.93295 726.465C-8.03795 731.123 -9.175 735.785 -10.314 740.461L-10.741 742.214L-10.954 743.09L-11.0609 743.528L-11.174 744.024C-11.475 745.415 -11.6549 746.645 -11.8449 747.908C-11.9469 748.609 -12.036 749.303 -12.13 749.999L-9.10996 749.999C-9.06296 749.667 -9.01996 749.328 -8.97196 748.998C-8.79396 747.826 -8.60495 746.616 -8.38895 745.639ZM6.75004 382.433L6.65703 381.452L6.54204 380.511L5.62504 372.985L4.61302 365.45L3.57506 357.96C2.37706 349.35 1.25504 340.744 0.508042 332.066L0.619065 332.776L1.23302 336.443L1.86906 340.085C3.58706 349.757 5.37602 359.258 6.24602 368.939C6.46002 371.356 6.63304 373.778 6.73204 376.205C6.80804 377.417 6.80502 378.632 6.83702 379.845L6.87205 381.709L6.89702 383.588L6.90404 384.062L6.75004 382.433Z" fill="#B06533"/>
<path d="M36.23 718.651L36.847 717.244L37.372 715.749C38.012 713.704 38.4531 711.529 38.8011 709.33C39.4841 704.918 39.758 700.392 39.927 695.883C40.223 686.848 39.9951 677.816 39.8431 668.81C39.7741 664.307 39.696 659.801 39.786 655.317C39.834 653.077 39.9101 650.836 40.1111 648.638L40.7151 641.944C41.5031 633.008 42.1791 624.04 42.5901 615.026C42.6781 612.771 42.8021 610.52 42.8481 608.261C42.9031 606.003 42.991 603.746 42.998 601.486C43.061 596.96 43.0591 592.46 43.0751 587.95C43.0821 583.441 43.11 578.935 43.146 574.429L43.194 567.671L43.279 560.915C43.378 551.905 43.578 542.901 43.829 533.905L44.294 520.417L44.938 506.953C45.197 502.473 45.5111 498.001 45.7941 493.525C45.9201 491.284 46.126 489.059 46.315 486.83L46.8851 480.146L47.17 476.804C47.265 475.734 47.4071 474.596 47.5231 473.495C47.7881 471.295 48.0851 469.153 48.4391 466.979C49.1341 462.65 49.9761 458.372 50.8541 454.099C52.6051 445.559 54.5281 437.011 55.6581 428.047L56.037 424.674C56.146 423.544 56.229 422.405 56.326 421.271L56.3611 420.845L56.3871 420.403L56.4341 419.561L56.5281 417.877C56.6021 416.764 56.621 415.604 56.665 414.465C56.806 409.899 56.786 405.355 56.634 400.81C56.297 391.73 55.467 382.712 54.199 373.862C53.565 369.436 52.831 365.048 51.998 360.708L51.37 357.487L50.7571 354.252C50.3541 352.094 49.916 349.94 49.589 347.778C48.104 339.18 47.014 330.341 46.165 321.487C45.322 312.62 44.713 303.69 44.35 294.724C43.971 285.761 43.765 276.774 43.66 267.778C43.569 258.78 43.5651 249.774 43.5801 240.761L43.6071 227.236L43.61 225.544L43.6 223.833L43.576 220.452C43.553 218.196 43.5591 215.949 43.5121 213.685C43.4051 209.16 43.3431 204.618 43.1741 200.114L42.9501 193.346L42.68 186.589L41.5341 159.603L41.2701 152.865L41.0521 146.128L40.8301 139.362C40.7671 137.124 40.6351 134.836 40.5181 132.559C39.4661 114.437 36.9861 96.7843 36.1121 78.9605C35.8771 74.5082 35.784 70.0521 35.759 65.5993L35.8141 52.0864L35.8791 38.5634L36.0001 25.05L36.251 0.00106722L33.8091 0.00106711L33.605 25.0077L33.509 38.542L33.47 52.0677L33.441 65.6036C33.474 70.1657 33.5791 74.7257 33.8271 79.2578C34.7581 97.4148 37.276 115.081 38.337 132.882C38.454 135.097 38.5871 137.298 38.6561 139.564L38.8901 146.302L39.1221 153.071L39.4001 159.829L40.597 186.811L40.8791 193.549L41.115 200.286C41.295 204.781 41.3661 209.255 41.4841 213.739C41.5371 215.98 41.5361 218.243 41.5651 220.494L41.5981 223.875L41.6121 225.544L41.613 227.234L41.62 240.759C41.628 249.778 41.654 258.805 41.769 267.837C41.898 276.87 42.128 285.906 42.532 294.932C42.921 303.959 43.5581 312.968 44.4321 321.92C45.3161 330.876 46.431 339.755 47.97 348.528C48.313 350.747 48.753 352.877 49.162 355.036L49.7831 358.266L50.4211 361.495C51.2531 365.767 51.987 370.087 52.623 374.445C53.893 383.16 54.737 392.035 55.097 400.955C55.26 405.412 55.293 409.894 55.17 414.334C55.13 415.445 55.1181 416.541 55.0471 417.671L54.9581 419.356L54.9141 420.198L54.8921 420.597L54.8591 421.009C54.7681 422.109 54.692 423.211 54.589 424.309L54.2311 427.593C53.1591 436.34 51.286 444.829 49.553 453.418C48.685 457.714 47.847 462.046 47.154 466.455C46.804 468.646 46.498 470.909 46.238 473.137C46.123 474.259 45.991 475.333 45.891 476.495L45.615 479.855L45.0641 486.576C44.8811 488.816 44.6821 491.053 44.5621 493.304C44.2911 497.8 43.991 502.292 43.745 506.791C42.805 524.794 42.44 542.848 42.271 560.887L42.211 567.654L42.1891 574.42C42.1701 578.931 42.159 583.441 42.169 587.948C42.17 592.454 42.188 596.971 42.143 601.46C42.145 603.709 42.065 605.954 42.019 608.201C41.982 610.449 41.8671 612.692 41.7881 614.937C41.4151 623.913 40.768 632.863 40.023 641.789L39.449 648.488C39.253 650.755 39.186 653.024 39.148 655.289C39.077 659.819 39.176 664.332 39.266 668.84C39.458 677.851 39.726 686.86 39.471 695.847C39.324 700.33 39.07 704.825 38.417 709.181C38.084 711.35 37.6601 713.491 37.0461 715.487L36.544 716.944L35.955 718.309C35.737 718.729 35.5061 719.127 35.2831 719.54C35.026 719.917 34.754 720.279 34.49 720.649L34.707 721.056C34.973 720.688 35.245 720.333 35.507 719.954C35.748 719.519 35.999 719.095 36.23 718.651Z" fill="#BC7742"/>
</g>
<rect width="251" height="750" fill="black" fill-opacity="0.29"/>
<defs>
<linearGradient id="paint0_linear" x1="124" y1="3.96166e-05" x2="124" y2="750" gradientUnits="userSpaceOnUse">
<stop stop-color="#EBAC6C"/>
<stop offset="0.0343" stop-color="#E4A567"/>
<stop offset="0.3461" stop-color="#BD7B49"/>
<stop offset="0.6221" stop-color="#A26035"/>
<stop offset="0.8495" stop-color="#925129"/>
<stop offset="1" stop-color="#8C4C25"/>
</linearGradient>
<linearGradient id="paint1_linear" x1="348.632" y1="5.67541e-05" x2="348.632" y2="750" gradientUnits="userSpaceOnUse">
<stop offset="0.086" stop-color="#EBAC6C"/>
<stop offset="1" stop-color="#8C4C25"/>
</linearGradient>
<linearGradient id="paint2_linear" x1="-62.141" y1="59.3343" x2="-62.141" y2="738.08" gradientUnits="userSpaceOnUse">
<stop stop-color="#A95D32"/>
<stop offset="0.2724" stop-color="#AB5F33"/>
<stop offset="0.5466" stop-color="#AF6435"/>
<stop offset="0.8209" stop-color="#B56C38"/>
<stop offset="1" stop-color="#B8723B"/>
</linearGradient>
<linearGradient id="paint3_linear" x1="158.718" y1="0.000192821" x2="158.718" y2="750" gradientUnits="userSpaceOnUse">
<stop stop-color="#874B30"/>
<stop offset="0.3037" stop-color="#935534"/>
<stop offset="0.8738" stop-color="#B46F3B"/>
<stop offset="1" stop-color="#BD763D"/>
</linearGradient>
<linearGradient id="paint4_linear" x1="169.868" y1="432.394" x2="169.868" y2="750" gradientUnits="userSpaceOnUse">
<stop stop-color="#C38143"/>
<stop offset="0.3034" stop-color="#AF6C38"/>
<stop offset="0.5974" stop-color="#9C5A2E"/>
<stop offset="0.8396" stop-color="#904F27"/>
<stop offset="1" stop-color="#8C4C25"/>
</linearGradient>
<linearGradient id="paint5_linear" x1="166.217" y1="633.813" x2="166.217" y2="750" gradientUnits="userSpaceOnUse">
<stop stop-color="#C38143"/>
<stop offset="0.3034" stop-color="#AF6C38"/>
<stop offset="0.5974" stop-color="#9C5A2E"/>
<stop offset="0.8396" stop-color="#904F27"/>
<stop offset="1" stop-color="#8C4C25"/>
</linearGradient>
<clipPath id="clip0">
<rect width="750" height="250" fill="white" transform="translate(251) rotate(90)"/>
</clipPath>
</defs>
</svg>
