<svg width="122" height="750" viewBox="0 0 122 750" fill="none" xmlns="http://www.w3.org/2000/svg">
<g clip-path="url(#clip0)">
<path d="M485 750L485 6.10352e-05L-495 1.8198e-05L-495 750L485 750Z" fill="url(#paint0_linear)"/>
<path d="M288.524 691.133C288.524 635.956 279.71 579.005 290.54 524.199C292.482 514.371 294.492 504.617 296.458 494.897C296.851 492.953 297.242 491.01 297.63 489.075C300.815 477.305 303.657 465.394 307.828 453.671C308.523 451.717 309.255 449.769 309.998 447.833C313 441.429 307 433.929 311 428.036C319 417.321 319 405.536 314.713 394.069C313.921 392.351 313.208 390.634 312.626 388.899C312.035 387.173 311.575 385.428 311.29 383.657C310.858 381.292 310.808 379.203 310.809 377.121C311.542 337.618 318.618 296.627 308.589 257.657C303.561 238.121 274.873 224.018 274.633 204.577C274.333 180.294 260.682 156.676 260.742 132.356C260.844 90.8888 273.569 49.7047 279.641 8.36952C280.043 5.63042 280.518 2.82488 280.972 5.94354e-05L177.026 5.48917e-05C176.944 0.357376 176.859 0.716305 176.778 1.07309C170.931 26.7531 146.616 52.1063 146.836 78.1484C147.083 107.36 153.203 138.165 146.98 167.231C141.959 190.681 130.173 213.786 125.293 237.045C120.646 259.196 121.823 281.547 121.832 303.889C121.833 307.524 121.89 311.165 122.035 314.807C122.108 316.628 122.204 318.451 122.342 320.29C123 343.393 131 364.821 142 387.857C143 390.536 142 393.75 142.331 396.572C142.358 398.276 142.398 400.014 142.447 401.75C142.67 409.562 143.084 417.327 143.441 425.094C143.53 427.036 143.616 428.979 143.695 430.923C144 445.179 145 459.643 140.585 474.015C139.919 475.712 139.281 477.414 138.677 479.119C135.656 487.648 133.476 496.271 132.783 504.938C131.979 514.993 128.541 523.686 131.33 533.594C134.629 545.315 130.014 558.069 129.929 569.9C129.819 585.288 147.092 598.124 146.202 613.438C145.521 625.141 150.729 633.857 156.07 644.883C162.895 658.971 157.786 674.848 158.118 689.27C158.51 706.316 159.334 723.419 155.934 740.402C155.308 743.528 154.977 746.756 154.628 750L291.447 750C293.568 730.586 288.524 710.042 288.524 691.133Z" fill="url(#paint1_linear)"/>
<path d="M106.927 640.118C106.927 616.42 99.275 593.94 98.847 571.218C98.315 542.974 96.842 515.856 89.121 488.473C82.51 465.026 77.581 440.626 67.811 417.423C60.217 399.39 48.606 378.989 51.717 359.655C53.468 348.771 63.014 338.137 67.9411 327.849C72.3881 318.563 71.913 306.021 71.916 295.596C71.923 269.722 78.3221 246.227 81.9411 221.195C85.3891 197.343 83.6311 172.421 85.3121 147.993C86.8521 125.614 85.812 102.065 89.421 79.4943C92.734 58.7782 94.8071 37.497 94.8071 15.1363C94.8071 10.9754 95.7261 5.47895 96.0641 0.000731436L-58.15 0.000724695C-59.106 20.3954 -60.215 41.128 -57.383 60.9372C-54.331 82.2843 -51.243 103.192 -43.891 123.987C-39.412 136.657 -36.402 149.79 -34.465 162.45C-31.375 182.647 -30.425 202.126 -30.425 222.914C-30.425 244.577 -27.619 266.311 -24.969 287.293C-22.549 306.458 -24.811 323.864 -18.231 342.563C-12.059 360.104 -2.11297 377.754 -2.14597 397.31C-2.19197 424.406 -5.31896 449.847 -8.80897 476.147C-10.358 487.818 -17.423 498.982 -18.305 511.07C-19 520.608 -20.503 529.196 -23.392 538.427C-30.742 561.914 -34.464 583.179 -34.464 608.195C-34.464 656.273 -49.175 702.843 -56.81 750.001L118.625 750.001C111.653 736.162 114.535 719.847 112.313 705.077C109.154 684.069 106.927 661.634 106.927 640.118Z" fill="url(#paint2_linear)"/>
<path d="M115.832 742.873C115.688 729.435 114.355 715.919 109.507 703.098C99.605 676.913 100.885 650.254 99.0191 622.311C98.1741 609.663 91.54 597.792 88.498 585.228C85.247 571.8 87.0191 558.25 86.3241 544.441C85.7641 533.321 84.459 521.278 81.991 510.39C79.4321 499.098 73.5321 488.599 71.3411 477.224C70.0001 470.265 69.9361 462.926 68.0341 456.084C65.6991 447.682 61.025 439.477 58.188 431.221C55.328 422.898 49.0401 396.92 35.1151 397.421C25.0391 397.783 24.1411 408.981 23.6041 415.581C22.7961 425.521 22.5941 435.806 17.8631 444.933C15.4381 449.611 10.5061 453.252 8.50207 457.99C6.68507 462.287 6.23406 467.023 5.51306 471.888C1.98106 495.736 -0.860936 519.297 -6.27894 543.201C-9.37594 556.868 -17.0639 568.804 -20.0129 582.84C-23.8779 601.233 -16.795 621.333 -20.834 639.666C-26.188 663.973 -33.703 684.32 -33.668 710.171C-33.65 723.399 -33.895 736.693 -34.109 750.001L-31.0629 750.001C-31.0409 748.641 -31.019 747.285 -30.997 745.935C-30.812 734.639 -30.6209 722.959 -30.6209 711.517L-30.622 709.993C-30.622 691.274 -26.594 675.436 -22.329 658.669C-20.815 652.719 -19.251 646.566 -17.842 640.175C-12.512 615.987 -18.4089 589.221 -7.12394 565.737C-3.73094 558.676 -0.0769463 552.973 0.862054 545.413C2.86805 529.249 4.65905 512.772 5.52105 496.547C6.33605 481.18 10.1811 477.671 21.5961 467.254C34.8641 455.146 35.297 447.075 35.977 432.515C37.852 432.214 39.5111 432.47 41.1011 433.293C59.7101 442.926 50.967 473.859 60.792 488.344C66.4 496.611 63.8631 504.053 67.3291 513.253C68.8141 517.195 73.745 520.569 75.589 524.526C77.543 528.72 78.2291 533.75 79.2001 537.968C82.8261 553.714 81.701 570.01 85.521 585.786C86.731 590.784 88.498 595.683 90.207 600.421C92.921 607.947 95.486 615.057 95.981 622.469C96.383 628.484 96.641 634.526 96.892 640.369C97.833 662.322 98.722 683.059 106.62 703.944C110.714 714.77 112.617 726.784 112.789 742.899C112.799 743.796 112.803 744.693 112.803 745.589C112.803 747.053 112.789 748.526 112.768 750L115.809 750C115.839 747.625 115.857 745.249 115.832 742.873Z" fill="#BC7742"/>
<path d="M90.82 712.485C90.672 697.885 89.926 681.215 82.892 668.167L82.366 667.192C76.128 655.63 74.246 652.141 73.468 638.393C72.611 623.238 71.666 605.096 67.438 590.392C64.639 580.661 58.764 570.382 50.954 563.123C43.887 556.555 44.948 549.963 44.736 541.682C44.558 534.723 41.481 530.15 39.929 523.318C38.418 516.662 39.518 509.233 38.123 502.37C36.833 496.025 33.106 490.44 31.617 484.458C23.855 483.545 18.713 504.573 17.467 508.797C13.997 520.563 15.759 530.891 16.568 542.907C16.776 545.987 16.972 548.896 16.972 551.631C16.972 553.138 16.912 554.451 16.789 555.645C15.919 564.096 12.725 571.999 9.34402 580.367C6.59902 587.161 3.76002 594.186 2.22302 601.618C0.423017 610.332 0.180017 618.768 0.180017 625.87C0.180017 628.231 0.209031 630.609 0.238031 632.908C0.266031 635.17 0.295037 637.508 0.295037 639.791C0.295037 652.181 -0.630978 662.606 -5.15098 673.211C-16.491 699.821 -17.83 724.766 -17.916 750.001L-14.869 750.001C-14.758 722.697 -13.001 699.264 -2.29899 674.151C7.91101 650.193 0.0160255 627.278 5.22003 602.098C8.54603 586.005 18.181 571.824 19.822 555.887C21.25 542.015 13.876 520.909 28.237 511.501C29.783 536.632 24.508 562.986 44.32 582.366C62.843 600.486 69.023 613.773 70.423 638.526C71.253 653.196 73.397 656.813 80.137 669.316C86.877 681.818 87.626 698.12 87.772 712.509C87.906 725.791 90.261 737.823 92.334 750.001L95.413 750.001C95.157 748.492 94.899 746.992 94.641 745.506C92.822 734.975 90.938 724.087 90.82 712.485Z" fill="#BC7742"/>
<path d="M112.786 742.898C112.613 726.784 110.711 714.77 106.617 703.944C98.7191 683.058 97.8301 662.322 96.8891 640.369C96.6391 634.526 96.38 628.483 95.978 622.468C95.483 615.056 92.9191 607.947 90.2041 600.42C88.4951 595.682 86.7281 590.783 85.5181 585.785C81.6981 570.01 82.823 553.713 79.197 537.967C78.226 533.75 77.5401 528.72 75.5861 524.525C73.7421 520.569 68.811 517.195 67.326 513.253C63.86 504.053 66.3971 496.61 60.7891 488.343C50.9641 473.859 59.7071 442.925 41.0981 433.292C39.5081 432.47 37.8481 432.214 35.9741 432.515C35.2941 447.074 34.861 455.145 21.593 467.254C10.179 477.67 6.33306 481.179 5.51806 496.547C4.65606 512.772 2.86607 529.249 0.859065 545.412C-0.0789355 552.972 -3.73396 558.676 -7.12696 565.736C-18.411 589.22 -12.5149 615.987 -17.8449 640.175C-19.2529 646.566 -20.8179 652.718 -22.3319 658.668C-26.597 675.436 -30.625 691.273 -30.625 709.992L-30.624 711.516C-30.624 722.958 -30.815 734.638 -31 745.934C-31.022 747.284 -31.0439 748.64 -31.0659 750L-17.9159 750C-17.8299 724.765 -16.492 699.821 -5.15095 673.211C-0.63095 662.606 0.295065 652.181 0.295065 639.791C0.295065 637.507 0.266059 635.169 0.238059 632.907C0.209059 630.609 0.180045 628.231 0.180045 625.87C0.180046 618.767 0.423045 610.331 2.22305 601.618C3.76005 594.186 6.59805 587.161 9.34405 580.366C12.725 571.999 15.9191 564.095 16.7891 555.644C16.9121 554.45 16.972 553.137 16.972 551.63C16.972 548.896 16.776 545.987 16.568 542.907C15.758 530.89 13.9961 520.563 17.4671 508.796C18.7131 504.573 23.8541 483.545 31.6171 484.458C33.1061 490.439 36.832 496.024 38.123 502.37C39.518 509.233 38.418 516.662 39.929 523.317C41.48 530.149 44.558 534.722 44.736 541.682C44.948 549.963 43.8871 556.554 50.9541 563.123C58.7641 570.381 64.639 580.66 67.438 590.391C71.666 605.095 72.61 623.238 73.468 638.393C74.246 652.141 76.128 655.63 82.366 667.191L82.892 668.167C89.926 681.214 90.6731 697.884 90.8201 712.484C90.9371 724.086 92.8221 734.975 94.6431 745.505C94.9001 746.992 95.1591 748.491 95.4151 750L112.765 750C112.785 748.526 112.8 747.053 112.8 745.589C112.8 744.692 112.795 743.795 112.786 742.898Z" fill="url(#paint3_linear)"/>
<path d="M68.0211 713.433C63.6601 705.534 58.838 698.166 56.882 690.037C54.409 679.76 55.5981 668.95 51.8201 658.894C49.5241 652.784 43.2171 639.767 36.9321 636.031C28.7651 631.174 18.6691 634.869 15.0011 641.548C9.81107 651.001 12.9651 663.769 10.7861 673.719C7.96007 686.622 0.989049 697.645 -1.81595 711.004C-4.42095 723.415 -5.28895 736.665 -5.50495 750L12.6071 750C13.2571 743.34 12.4651 736.285 12.4651 729.603C12.4651 724.024 11.735 718.055 13.2361 712.687C14.1351 709.47 17.0581 706.12 17.9751 703.495C21.8151 692.505 23.0061 678.543 28.9191 668.787C41.2391 666.26 38.3301 683.192 39.0911 689.311C39.9451 696.18 43.2551 703.231 45.5211 709.846C48.5461 718.674 53.5991 727.588 57.8881 736.616C59.8851 740.819 61.5401 745.332 62.9101 750L79.9401 750C79.4881 745.738 79.0331 741.517 78.6251 737.357C77.7421 728.351 71.9971 720.635 68.0211 713.433Z" fill="url(#paint4_linear)"/>
<path d="M45.52 709.846C43.254 703.231 39.943 696.18 39.09 689.311C38.33 683.193 41.238 666.26 28.918 668.787C23.005 678.543 21.814 692.505 17.974 703.496C17.057 706.12 14.134 709.47 13.235 712.687C11.734 718.055 12.464 724.024 12.464 729.603C12.464 736.286 13.257 743.34 12.606 750.001L62.908 750.001C61.539 745.333 59.883 740.82 57.886 736.617C53.599 727.589 48.545 718.675 45.52 709.846Z" fill="#C07F48"/>
<path d="M53.133 297.025C54.678 288.603 58.3641 280.921 61.4581 272.849C64.4621 265.011 63.811 258.337 64.487 250.325C65.5151 238.141 71.431 226.52 70.241 214.115C68.663 197.664 75.401 179.519 75.891 162.297C76.373 145.357 75.143 128.736 77.4001 112.263C79.5111 96.8507 84.115 82.2884 84.701 66.7725C85.565 43.9136 85.4601 21.7548 87.3311 0.00160383L85.1891 0.00160374C83.9521 14.5993 83.5921 29.3711 83.2231 44.6218C83.0491 51.7896 82.8701 59.2018 82.5911 66.5802C82.2471 75.6723 80.4681 84.3943 78.5841 93.6268C77.3981 99.4387 76.1721 105.448 75.3321 111.579C72.6811 130.931 73.4621 150.922 70.9461 170.238C70.2721 175.411 69.7961 181.581 68.4401 186.726C67.1601 191.58 63.7381 195.719 62.7081 200.554C60.3031 211.84 62.063 220.969 58.172 231.11C51.354 248.878 57.421 286.824 44.507 298.641C43.403 299.649 42.252 299.964 40.951 299.594C40.479 281.734 40.1791 271.834 30.9711 256.98C23.0501 244.203 20.3821 239.898 19.8161 221.047C19.2181 201.144 17.9751 180.932 16.5831 161.103C15.9321 151.829 13.396 144.833 11.041 136.172C3.21004 107.365 7.30205 74.5302 3.60306 44.8586C2.62606 37.0189 1.54005 29.4718 0.49005 22.1732C-0.583949 14.707 -1.63495 7.39017 -2.53995 0.00106419L-4.69293 0.00106409C-2.87793 14.9566 -0.460925 29.5248 1.52807 45.4837C4.33007 67.973 -0.584958 92.6298 2.09704 115.193C3.39804 126.137 6.47406 136.142 5.86306 147.293C5.25706 158.353 3.17405 169.468 5.51305 180.486C7.17305 188.308 10.833 195.4 11.408 203.352C11.959 210.972 11.313 218.754 11.408 226.387C11.589 240.871 17.2891 253.351 17.8631 267.475C18.2441 276.836 19.143 285.458 21.347 293.953C23.674 302.919 24.318 311.074 24.318 320.299C24.318 329.695 23.243 339.639 24.285 348.988C25.264 357.779 29.941 365.818 31.616 374.505C48.358 377.084 51.319 306.919 53.133 297.025Z" fill="#BC7742"/>
<path d="M42.443 213.902C43.411 205.483 42.648 196.37 43.697 188.206C44.774 179.825 46.909 174.215 47.033 165.679C47.18 155.521 46.444 147.435 51.348 139.377C56.768 130.473 60.845 117.864 62.787 105.927C65.721 87.8899 66.376 65.6347 66.971 47.0438C67.511 30.179 68.817 25.8992 73.146 11.7167L73.511 10.5199C74.527 7.1872 75.345 3.6547 76.019 6.10352e-05L73.825 6.09393e-05C73.214 3.17149 72.481 6.22506 71.601 9.11256C66.923 24.4495 65.436 28.8863 64.86 46.881C63.888 77.2463 59.6 93.5449 46.746 115.772C32.997 139.546 36.658 171.874 35.585 202.703C25.619 191.161 30.737 165.271 29.746 148.255C28.607 128.705 21.921 111.309 19.613 91.567C16 60.681 21.479 32.5699 14.393 3.18059C14.137 2.11827 13.889 1.05863 13.648 0.000594023L11.411 0.000593925C11.733 1.44167 12.064 2.88488 12.414 4.33399C15.551 17.3433 16.193 30.1313 16.193 45.3301C16.193 48.1313 16.173 50.9995 16.154 53.7734C16.134 56.5934 16.114 59.5099 16.114 62.4065C16.114 71.1188 16.282 81.4672 17.532 92.1558C18.598 101.273 20.568 109.891 22.473 118.225C24.819 128.49 27.036 138.184 27.639 148.552C27.724 150.017 27.766 151.626 27.766 153.476C27.766 156.831 27.63 160.399 27.486 164.177C26.924 178.918 25.701 191.586 28.11 206.02C28.975 211.202 32.543 236.995 37.929 235.876C38.962 228.538 41.548 221.686 42.443 213.902Z" fill="#BC7742"/>
<path d="M44.508 298.641C57.422 286.824 51.3551 248.878 58.1731 231.11C62.0641 220.969 60.3041 211.84 62.7091 200.554C63.7391 195.719 67.1621 191.581 68.4411 186.726C69.7971 181.582 70.273 175.411 70.947 170.238C73.463 150.922 72.6821 130.931 75.3331 111.579C76.1731 105.448 77.399 99.4382 78.585 93.6268C80.469 84.3937 82.2481 75.6723 82.5921 66.5802C82.8711 59.2018 83.0501 51.7896 83.2241 44.6218C83.5941 29.3711 83.9541 14.5993 85.1901 0.00160383L76.0191 0.00160343C75.3451 3.65625 74.527 7.18875 73.511 10.5214L73.1461 11.7182C68.8171 25.9012 67.5111 30.1811 66.9711 47.0454C66.3761 65.6357 65.721 87.8914 62.787 105.928C60.845 117.866 56.767 130.475 51.348 139.379C46.444 147.437 47.18 155.522 47.033 165.68C46.909 174.217 44.774 179.827 43.697 188.208C42.648 196.372 43.412 205.485 42.443 213.904C41.548 221.688 38.9621 228.539 37.9281 235.877C32.5411 236.996 28.9731 211.202 28.1091 206.021C25.7011 191.587 26.924 178.918 27.485 164.178C27.629 160.4 27.7651 156.831 27.7651 153.476C27.7651 151.627 27.7231 150.017 27.6381 148.552C27.0341 138.185 24.818 128.49 22.472 118.226C20.567 109.891 18.5971 101.273 17.5311 92.1562C16.2821 81.4677 16.1131 71.1193 16.1131 62.407C16.1131 59.5109 16.1331 56.5939 16.1531 53.7739C16.1721 50.9995 16.192 48.1318 16.192 45.3305C16.192 30.1318 15.5501 17.3437 12.4131 4.33446C12.0641 2.88535 11.7331 1.44214 11.4101 0.00106489L-2.53995 0.00106428C-1.63495 7.39017 -0.583949 14.707 0.49005 22.1732C1.54005 29.4718 2.62606 37.0189 3.60306 44.8586C7.30205 74.5302 3.21004 107.365 11.041 136.172C13.396 144.833 15.9311 151.829 16.5831 161.103C17.9751 180.931 19.2181 201.144 19.8161 221.047C20.3821 239.898 23.0501 244.203 30.9711 256.98C40.1781 271.833 40.479 281.734 40.951 299.594C42.253 299.964 43.404 299.649 44.508 298.641Z" fill="#C07F48"/>
<path d="M41.6171 49.9426C45.9781 45.359 50.3551 29.392 51.9481 21.8963C53.4561 14.8035 53.8241 7.4047 54.1901 6.10352e-05L42.7041 6.05331e-05C42.1651 6.2856 40.6111 11.4118 36.0551 9.76024C35.0341 6.78167 34.2161 3.48274 33.5221 0.000595846L22.951 0.000595384C23.139 1.22577 23.3181 2.45845 23.4731 3.71042C24.9851 15.9167 22.7961 31.5788 26.3981 43.1743C28.9431 51.3686 35.9491 55.9002 41.6171 49.9426Z" fill="#BC7742"/>
<path d="M42.704 0.00106812L33.522 0.00106771C34.216 3.48321 35.034 6.78214 36.055 9.76124C40.611 11.4129 42.166 6.2866 42.704 0.00106812Z" fill="#C07F48"/>
<path d="M129.034 572.167C129.034 533.225 128.229 488.913 114.762 453.536C108.08 435.984 109.026 418.609 106.552 399.208C104.335 381.819 100.582 365.827 99.9 347.943C98.852 320.47 96.598 291.717 98.58 264.066C100.167 241.932 106.208 224.305 109.396 203.649C111.993 186.82 113.143 170.141 113.143 151.967C113.143 100.975 116.007 50.1145 121.404 0.00106766L117.838 0.0010675C112.375 50.9357 109.611 101.847 109.611 151.967C109.611 170.389 108.44 186.561 105.925 202.859C104.699 210.807 102.998 218.492 101.353 225.924C98.747 237.699 96.053 249.875 95.062 263.695C94.522 271.222 94.26 279.198 94.26 288.076C94.26 302.194 94.934 316.495 95.585 330.326C95.861 336.194 96.147 342.262 96.372 348.141C96.833 360.21 98.672 371.545 100.45 382.505C101.366 388.15 102.312 393.986 103.062 399.863C103.685 404.747 104.091 409.566 104.457 414.26C102.292 406.533 99.852 399.582 97.124 393.352C95.348 389.298 93.605 385.494 91.919 381.816C83.511 363.474 76.87 348.986 76.87 326.162C76.87 324.79 76.894 323.376 76.942 321.961C77.527 304.66 82.035 289.773 86.808 274.012C88.302 269.08 89.846 263.98 91.259 258.808C97.242 236.909 98.135 210.122 98.135 196.104C98.135 195.69 98.132 194.302 98.132 194.302C98.132 182.603 99.492 171.146 100.808 160.066C101.918 150.717 103.065 141.051 103.427 131.135C103.592 126.626 103.736 122.014 103.875 117.553C104.327 103.112 104.794 88.1796 106.034 73.3318C106.936 62.528 107.797 51.6225 108.628 41.0753C109.696 27.5405 110.785 13.7995 111.981 0.00160296L108.425 0.0016028C106.337 24.157 104.567 48.3921 102.521 72.9C100.882 92.5253 100.592 111.941 99.898 130.946C99.108 152.615 94.52 172.753 94.601 194.886C94.673 214.44 93.025 238.725 87.907 257.46C82.085 278.771 74.212 298.148 73.413 321.786C72.352 353.203 82.718 369.591 94.005 395.365C103.454 416.94 108.03 445.123 110.497 468.569C114.369 505.363 114.465 541.945 114.465 579.427C114.465 609.31 121.144 636.455 121.086 667.076C121.034 694.447 120.225 722.712 122.102 750.001L125.643 750.001C124.627 735.38 124.423 720.783 124.4 709.01C125.157 722.749 126.662 735.787 128.123 748.436C128.183 748.96 128.243 749.48 128.303 750.001L131.868 750.001C130.163 735.209 128.388 720.35 127.712 704.402C125.847 660.394 129.034 616.252 129.034 572.167ZM121.246 621.941C119.576 607.529 117.999 593.916 117.999 579.426C117.999 545.013 117.999 506.008 114.002 468.026C113.69 465.065 113.36 462.167 113.011 459.334C124.509 492.454 125.503 533.173 125.503 572.167C125.503 589.145 125.019 606.451 124.552 623.187C124.321 631.444 124.087 639.839 123.908 648.273C123.254 639.274 122.24 630.521 121.246 621.941Z" fill="#BC7742"/>
<path d="M125.503 572.166C125.503 533.172 124.508 492.453 113.011 459.333C113.36 462.166 113.69 465.063 114.002 468.025C117.999 506.007 117.999 545.012 117.999 579.425C117.999 593.915 119.576 607.528 121.246 621.94C122.24 630.52 123.254 639.273 123.908 648.272C124.087 639.839 124.322 631.443 124.552 623.186C125.02 606.45 125.503 589.144 125.503 572.166Z" fill="#C07F48"/>
<path d="M100.451 382.505C98.673 371.544 96.834 360.21 96.373 348.141C96.149 342.262 95.863 336.194 95.586 330.326C94.934 316.495 94.261 302.194 94.261 288.076C94.261 279.197 94.523 271.222 95.063 263.694C96.054 249.875 98.7481 237.699 101.354 225.923C102.999 218.491 104.699 210.807 105.926 202.859C108.441 186.561 109.612 170.389 109.612 151.966C109.612 101.846 112.375 50.9354 117.839 0.000732422L111.984 0.000732166C110.788 13.7986 109.698 27.5397 108.631 41.0745C107.799 51.6216 106.939 62.5277 106.037 73.3309C104.797 88.1793 104.329 103.112 103.878 117.552C103.738 122.013 103.594 126.625 103.43 131.134C103.068 141.05 101.921 150.716 100.811 160.065C99.4961 171.145 98.1351 182.602 98.1351 194.302C98.1351 194.302 98.1381 195.69 98.1381 196.103C98.1381 210.121 97.245 236.908 91.262 258.807C89.849 263.98 88.3041 269.079 86.8111 274.011C82.0381 289.772 77.5301 304.659 76.9451 321.96C76.8971 323.376 76.873 324.789 76.873 326.161C76.873 348.985 83.514 363.473 91.922 381.816C93.608 385.493 95.3511 389.297 97.1271 393.351C99.8551 399.581 102.296 406.532 104.46 414.259C104.094 409.565 103.687 404.746 103.065 399.862C102.314 393.985 101.367 388.149 100.451 382.505Z" fill="#C07F48"/>
<path d="M-51.814 605.507C-42.566 569.667 -44.799 535.792 -41.247 498.666C-39.637 481.84 -33.846 467.972 -32.202 450.484C-30.015 427.232 -27.733 403.817 -23.375 380.97C-10.567 313.833 8.23904 238.982 -2.90395 169.169C-11.7969 113.449 -19.371 56.8162 -30.567 0.00106676L-35.517 0.00106654C-29.409 30.9289 -24.353 61.9334 -19.631 92.4621C-20.362 89.588 -21.15 86.7552 -21.931 83.9502C-24.2189 75.735 -26.5839 67.2396 -27.2449 58.3436C-28.7529 38.0196 -32.0889 18.9707 -37.5009 0.00106645L-42.5259 0.00106624C-37.0119 19.0596 -33.6239 38.2002 -32.1069 58.6227C-30.6059 78.8378 -21.042 95.6855 -21.14 115.993C-21.258 140.502 -23.585 166.011 -21.134 190.421C-17.599 225.614 -7.91895 262.531 -17.589 297.753C-21.9589 313.671 -27.302 329.025 -32.677 344.328C-32.109 347.88 -31.7169 351.612 -31.5219 355.578C-30.5929 352.916 -29.662 350.265 -28.734 347.626C-23.187 331.837 -17.45 315.512 -12.851 298.759C-12.556 297.687 -12.277 296.607 -12.014 295.519C-15.199 314.832 -19.032 334.033 -22.813 352.969C-24.611 361.974 -26.47 371.285 -28.182 380.261C-32.397 402.358 -34.608 424.058 -37.059 450.131C-37.867 458.717 -39.752 466.603 -41.577 474.23C-43.399 481.852 -45.284 489.734 -46.104 498.306C-47.289 510.69 -47.838 522.787 -48.37 534.485C-49.455 558.388 -50.48 580.967 -56.568 604.558C-58.695 612.801 -60.373 620.872 -61.726 628.885C-64.72 666.158 -67.34 702.885 -71.713 739.745C-68.047 728.742 -63.6749 718.142 -63.1829 706.008C-61.7339 670.271 -60.503 639.177 -51.814 605.507ZM-8.53997 264.027C-8.53997 247.637 -10.8589 231.074 -13.1019 215.057C-14.2569 206.807 -15.4509 198.276 -16.2789 190.045C-17.0189 182.68 -17.3779 174.51 -17.3779 165.069C-17.3779 156.573 -17.0929 147.879 -16.8179 139.471C-16.5649 131.752 -16.3039 123.771 -16.2659 116.012L-16.265 115.683C-16.265 115.234 -16.269 114.786 -16.278 114.341C-15.928 116.639 -15.579 118.938 -15.23 121.228C-12.807 137.169 -10.301 153.651 -7.72896 169.765C-5.47796 183.863 -4.38497 198.469 -4.38497 214.417C-4.38497 234.542 -6.15895 254.796 -8.90795 274.993C-8.66295 271.452 -8.53997 267.802 -8.53997 264.027Z" fill="#BC7742"/>
<path d="M142.735 730.106L142.779 723.348L142.866 716.589L143.57 662.492L143.723 648.958L143.786 635.432L143.832 621.896C143.779 617.334 143.612 612.774 143.216 608.242C141.729 590.085 137.708 572.419 136.012 554.618C135.825 552.402 135.612 550.202 135.503 547.936L135.129 541.197L134.758 534.429L134.314 527.67L132.402 500.689L131.952 493.951L131.574 487.214C131.287 482.719 131.173 478.244 130.984 473.761C130.899 471.52 130.9 469.257 130.854 467.006L130.802 463.625L130.779 461.956L130.777 460.265L130.766 446.741C130.753 437.721 130.711 428.695 130.528 419.662C130.357 412.136 130.073 404.605 129.61 397.081C129.517 395.576 129.417 394.071 129.31 392.575C129 370.18 123 348.215 116.729 326.027C116.049 323.874 115.42 321.722 114.834 319.563C114.248 317.404 113.701 315.235 113.193 313.056C111.165 304.341 109.816 295.466 109.241 286.546C108.981 282.089 108.928 277.607 109.124 273.167C109.187 272.056 109.206 270.96 109.32 269.83L109.461 268.145L109.532 267.303L109.567 266.904L109.619 266.492C109.765 265.392 109.886 264.29 110.05 263.192L110.622 259.908C112.334 251.161 115.326 242.672 118.094 234.083C119.481 229.787 120.819 225.455 121.926 221.046C122.485 218.855 122.974 216.591 123.39 214.364C123.573 213.242 123.784 212.167 123.945 211.006L124.385 207.646L125.266 200.925C125.558 198.685 125.877 196.447 126.068 194.197C126.5 189.701 126.981 185.209 127.373 180.711C128.874 162.707 129.457 144.654 129.727 126.614L129.822 119.848L129.858 113.082C129.888 108.571 129.905 104.061 129.89 99.5534C129.888 95.0475 129.859 90.5304 129.932 86.0411C129.929 83.7927 130.057 81.547 130.13 79.3002C130.188 77.0523 130.372 74.8098 130.499 72.5646C131.095 63.5882 132.128 54.638 133.318 45.712L134.234 39.0139C134.547 36.7462 134.653 34.4764 134.714 32.2125C134.827 27.6825 134.669 23.1696 134.526 18.6616C134.316 12.4382 134.053 6.21589 134.04 0.00106769L133.253 0.00106765C133.221 6.23785 133.44 12.4704 133.607 18.6905C133.718 23.1937 133.842 27.6991 133.698 32.1836C133.622 34.4234 133.499 36.6643 133.18 38.8623L132.215 45.5561C130.957 54.4923 129.876 63.4602 129.22 72.4741C129.079 74.7289 128.881 76.98 128.808 79.2396C128.721 81.4977 128.579 83.7541 128.568 86.0148C128.468 90.5405 128.47 95.04 128.445 99.5507C128.433 104.06 128.389 108.566 128.332 113.071L128.256 119.829L128.12 126.586C127.962 135.595 127.643 144.599 127.242 153.596L126.5 167.083L125.471 180.547C125.057 185.028 124.556 189.499 124.103 193.975C123.901 196.217 123.572 198.441 123.271 200.67L122.361 207.354L121.906 210.696C121.755 211.766 121.527 212.905 121.342 214.006C120.919 216.206 120.444 218.347 119.879 220.521C118.769 224.851 117.425 229.129 116.022 233.401C113.225 241.941 110.154 250.49 108.35 259.453L107.745 262.827C107.57 263.957 107.438 265.095 107.283 266.229L107.227 266.655L107.186 267.097L107.111 267.94L106.961 269.623C106.843 270.736 106.813 271.896 106.743 273.035C106.518 277.601 106.55 282.145 106.792 286.691C107.33 295.77 108.655 304.789 110.68 313.639C111.186 315.852 111.732 318.055 112.318 320.247C112.904 322.44 113.53 324.622 114.201 326.799C121 348.751 126 370.715 126.408 392.776C126.509 394.27 126.602 395.764 126.688 397.259C127.118 404.735 127.37 412.226 127.511 419.722C127.657 428.72 127.662 437.727 127.639 446.74L127.595 460.265L127.59 461.956L127.606 463.668L127.645 467.049C127.682 469.304 127.672 471.552 127.747 473.815C127.918 478.34 128.017 482.882 128.286 487.386L128.643 494.154L129.074 500.912L130.904 527.897L131.326 534.635L131.675 541.372L132.03 548.138C132.131 550.377 132.341 552.665 132.527 554.942C134.208 573.064 138.168 590.716 139.564 608.54C139.94 612.992 140.088 617.448 140.127 621.901L140.04 635.414L139.937 648.937L139.743 662.45L138.876 716.538L138.776 723.302L138.719 730.069L138.606 743.602C138.578 745.735 138.571 747.868 138.571 750.001L142.625 750.001C142.621 747.874 142.624 745.747 142.648 743.62L142.735 730.106Z" fill="#BC7742"/>
</g>
<rect width="122" height="750" fill="black" fill-opacity="0.29"/>
<defs>
<linearGradient id="paint0_linear" x1="-4.99994" y1="3.96166e-05" x2="-4.99997" y2="750" gradientUnits="userSpaceOnUse">
<stop stop-color="#EBAC6C"/>
<stop offset="0.0343" stop-color="#E4A567"/>
<stop offset="0.3461" stop-color="#BD7B49"/>
<stop offset="0.6221" stop-color="#A26035"/>
<stop offset="0.8495" stop-color="#925129"/>
<stop offset="1" stop-color="#8C4C25"/>
</linearGradient>
<linearGradient id="paint1_linear" x1="219.632" y1="5.67541e-05" x2="219.632" y2="750" gradientUnits="userSpaceOnUse">
<stop offset="0.086" stop-color="#EBAC6C"/>
<stop offset="1" stop-color="#8C4C25"/>
</linearGradient>
<linearGradient id="paint2_linear" x1="29.7181" y1="0.000192821" x2="29.7181" y2="750" gradientUnits="userSpaceOnUse">
<stop stop-color="#874B30"/>
<stop offset="0.3037" stop-color="#935534"/>
<stop offset="0.8738" stop-color="#B46F3B"/>
<stop offset="1" stop-color="#BD763D"/>
</linearGradient>
<linearGradient id="paint3_linear" x1="40.8679" y1="432.394" x2="40.8679" y2="750" gradientUnits="userSpaceOnUse">
<stop stop-color="#C38143"/>
<stop offset="0.3034" stop-color="#AF6C38"/>
<stop offset="0.5974" stop-color="#9C5A2E"/>
<stop offset="0.8396" stop-color="#904F27"/>
<stop offset="1" stop-color="#8C4C25"/>
</linearGradient>
<linearGradient id="paint4_linear" x1="37.2175" y1="633.813" x2="37.2175" y2="750" gradientUnits="userSpaceOnUse">
<stop stop-color="#C38143"/>
<stop offset="0.3034" stop-color="#AF6C38"/>
<stop offset="0.5974" stop-color="#9C5A2E"/>
<stop offset="0.8396" stop-color="#904F27"/>
<stop offset="1" stop-color="#8C4C25"/>
</linearGradient>
<clipPath id="clip0">
<rect width="750" height="122" fill="white" transform="translate(122) rotate(90)"/>
</clipPath>
</defs>
</svg>
